<svg width="1140" height="1140" viewBox="0 0 1140 1140" fill="none" xmlns="http://www.w3.org/2000/svg">
<path fill-rule="evenodd" clip-rule="evenodd" d="M15.2959 440.941L15.2821 440.937C14.9721 442.27 14.6731 443.599 14.3849 444.925C-17.9171 588.551 5.13919 744.545 91.0991 878.118C177.854 1012.93 311.94 1098.88 457.592 1128.22L457.589 1128.24C458.889 1128.5 460.194 1128.75 461.506 1129C600.514 1156 749.737 1131.51 878.217 1048.83C1007.4 965.697 1091.72 839.1 1124.35 700.512C1124.48 699.975 1124.61 699.439 1124.73 698.904L1124.73 698.903C1158.37 554.178 1135.69 396.527 1048.93 261.714C962.51 127.426 829.126 41.6156 684.126 11.95C683.561 11.8327 682.994 11.7169 682.426 11.6024L682.425 11.6047C542.312 -16.6195 391.495 7.54411 261.813 91.0003C132.126 174.459 47.6522 301.719 15.2959 440.941ZM218.158 124.707C232.424 113.46 247.357 102.793 262.946 92.7608C268.403 89.249 273.897 85.8427 279.427 82.5411C279.371 83.0474 279.351 83.5922 279.362 84.1697C279.376 84.8901 279.438 85.6835 279.547 86.5475C274.615 89.4635 269.698 92.4967 264.803 95.6468C250.744 104.694 237.487 114.308 225.107 124.342C222.603 124.177 220.282 124.292 218.158 124.707ZM211.932 129.687C205.083 135.244 198.393 140.936 191.863 146.757L191.913 146.813C180.273 157.216 169.354 167.877 159.197 178.714C164.838 174.959 171.049 171.841 177.789 169.341C190.985 154.5 205.996 140.054 222.631 126.364C218.19 126.419 214.636 127.552 211.964 129.726L211.932 129.687ZM111.586 235.275C107.067 241.469 102.683 247.743 98.4353 254.093C99.8612 252.458 101.319 250.85 102.807 249.268C105.588 244.601 108.516 239.935 111.586 235.275ZM82.1924 279.85C75.7425 290.717 69.6715 301.775 63.9842 313.003L64.0644 313.044C57.1489 326.665 51.4093 340 46.8062 352.992C54.7299 338.612 63.9478 324.961 74.3514 312.07C79.748 294.423 87.567 276.375 97.6222 258.274C91.9669 265.048 86.8479 272.261 82.2979 279.913L82.1924 279.85ZM26.9733 405.339C22.9741 418.557 19.457 431.914 16.4283 445.38C12.7819 462.152 10.8925 478.282 10.6887 493.666C15.5897 473.692 22.2211 454.161 30.4592 435.174C29.9235 416.988 32.1432 397.588 37.2661 377.225C33.336 386.342 29.9006 395.717 26.9836 405.342L26.9733 405.339ZM682.185 13.692C656.789 8.56795 631.038 5.17156 605.126 3.54427C617.824 5.35273 629.793 7.96977 640.997 11.3448C654.758 11.2466 668.502 12.0182 682.185 13.692ZM538.471 3.27325C511.088 4.77211 483.705 8.26481 456.546 13.7994C475.083 10.9568 492.895 9.64978 509.765 9.83247C519.212 7.03143 528.786 4.83627 538.471 3.27325ZM341.538 50.4348C321.439 59.3039 301.663 69.4285 282.31 80.8307L282.315 80.838C282.117 80.9542 281.89 81.2003 281.714 81.7438C281.535 82.2953 281.435 83.0785 281.456 84.1296C281.463 84.519 281.487 84.9372 281.527 85.3841C300.818 74.1112 320.329 64.6298 339.647 56.9627C342.34 53.3396 345.279 50.1851 348.47 47.5248C346.173 48.4973 343.873 49.4903 341.568 50.5039L341.538 50.4348ZM734.599 26.8767L734.596 26.886C732.016 26.1038 729.431 25.3567 726.842 24.6443C745.064 31.9403 761.043 41.1332 774.736 51.9817C795.715 56.9376 816.192 63.5477 836.005 71.849C824.413 63.5266 811.416 56.1642 797 49.8718L797.024 49.8175C776.65 40.9473 755.802 33.2917 734.599 26.8767ZM831.75 66.3569C836.073 69.2436 840.218 72.2561 844.184 75.3894C852.968 79.3144 861.614 83.5793 870.108 88.1874C857.58 80.395 844.783 73.1158 831.75 66.3569ZM924.037 126.282C938.371 140.701 949.772 156.86 958.324 174.445C976.674 187.757 993.844 202.456 1009.65 218.499C1001.76 203.735 991.814 189.967 979.749 177.374L979.824 177.303C962.237 158.905 943.588 141.887 924.037 126.282ZM1002.69 202.719C1007.15 209.467 1011.13 216.453 1014.65 223.658C1025.88 235.478 1036.39 248 1046.11 261.209C1032.71 240.543 1018.2 221.037 1002.69 202.719ZM1080.88 322.824L1080.82 322.849C1076.29 313.485 1071.42 304.375 1066.22 295.524C1075.09 318.095 1079.81 342.404 1080.63 367.949C1092.6 386.549 1102.91 405.933 1111.39 425.992C1110.05 402.706 1105.35 380.454 1097.03 359.619L1097.13 359.581C1092.18 347.213 1086.76 334.953 1080.88 322.824ZM1109.04 392.224C1111.74 405.012 1113.3 418.194 1113.75 431.698C1120.66 448.822 1126.25 466.423 1130.43 484.436C1129.81 478.056 1128.92 471.753 1127.76 465.535L1127.9 465.508C1123.3 440.862 1117.02 416.379 1109.04 392.224ZM1137.25 552.233L1137.16 552.236C1136.74 538.685 1135.53 525.301 1133.56 512.11C1133.04 538.629 1128.33 566.161 1119.86 594.18C1123.84 612.751 1126.1 631.372 1126.53 649.917C1133.28 625.744 1137.01 601.907 1137.37 578.769L1137.43 578.77C1137.57 569.933 1137.51 561.085 1137.25 552.233ZM1135 622.654C1132.91 634.065 1130.1 645.58 1126.61 657.159C1126.58 668.176 1125.91 679.161 1124.56 690.087C1129.38 667.854 1132.87 645.333 1135 622.654ZM1107.84 750.84C1100.37 768.827 1091.27 786.79 1080.7 804.579C1078.9 814.071 1076.38 823.308 1073.13 832.256C1074.09 830.436 1075.04 828.613 1075.97 826.788L1076.05 826.828C1088.5 802.24 1099.11 776.835 1107.84 750.84ZM1035.28 894.982C1027.18 905.625 1018.56 916.087 1009.47 926.332C1008.52 928.568 1007.5 930.743 1006.38 932.857C1016.59 920.593 1026.22 907.955 1035.28 894.982ZM994.388 946.797L994.282 946.703C998.313 942.164 1001.75 937.17 1004.6 931.747C983.916 954.454 960.929 976.047 936.256 996.126C935.985 999.461 935.337 1002.42 934.279 1004.97C938.97 1001.05 943.584 997.069 948.116 993.019L948.166 993.075C964.594 978.431 980.008 962.971 994.388 946.797ZM798.492 1089.4L798.461 1089.33C817.584 1080.92 836.426 1071.31 854.741 1060.66C854.297 1060.46 853.839 1060.23 853.368 1059.96C852.068 1059.2 850.593 1058.11 848.953 1056.7C820.34 1073.5 790.647 1088.2 760.558 1100.37C767.064 1100.69 773.164 1099.76 778.814 1097.53L778.853 1097.62C785.431 1095.01 791.978 1092.27 798.492 1089.4ZM766.353 1102.42C763.081 1102.64 759.712 1102.52 756.253 1102.09C730.583 1112.25 704.649 1120.54 678.876 1126.7C680.664 1126.42 682.448 1126.09 684.227 1125.73L684.258 1125.87C711.935 1120.19 739.378 1112.39 766.353 1102.42ZM594.205 1136.91L594.201 1136.82C596.304 1136.73 598.416 1136.63 600.538 1136.5C617.667 1135.48 635.08 1133.32 652.641 1130.1C641.799 1129.51 630.879 1127.54 619.934 1124.29C588.993 1130.62 559.092 1134.03 530.81 1134.48C541.574 1136.22 552.488 1137.18 563.528 1137.3L563.527 1137.36C573.743 1137.49 583.972 1137.34 594.205 1136.91ZM524.883 1135.57C523.101 1135.23 521.324 1134.88 519.552 1134.5C516.78 1134.47 514.025 1134.4 511.287 1134.31C515.813 1134.78 520.345 1135.2 524.883 1135.57ZM461.9 1126.94C477.063 1129.78 493.018 1131.51 509.635 1132.16C494.588 1128.24 479.877 1122.79 465.565 1115.89C437.595 1115.54 411.184 1112.47 386.823 1106.66C392.931 1108.94 399.135 1111.04 405.433 1112.95L405.43 1112.96C424.008 1118.58 442.857 1123.24 461.9 1126.94ZM342.994 1090.01L343.01 1089.97C346.319 1091.42 349.685 1092.79 353.106 1094.11C338.783 1086.8 325.075 1078.43 312.011 1069.07C299.038 1065.11 286.696 1060.36 275.059 1054.8C296.963 1068.1 319.667 1079.85 342.994 1090.01ZM243.866 1034.42L243.951 1034.3C262.403 1047.26 283.474 1057.55 306.71 1065.19C290.298 1052.94 274.936 1039.11 260.681 1023.88C234.294 1015.84 210.431 1004.63 189.696 990.218C198.237 998.477 207.225 1006.38 216.662 1013.89L216.566 1014.01C225.484 1021.11 234.589 1027.91 243.866 1034.42ZM160.209 962.532L160.299 962.445C161.955 964.173 163.643 965.871 165.364 967.539C153.707 954.061 143.074 939.822 133.463 924.918C125.948 918.896 118.913 912.403 112.395 905.435C127.246 925.731 143.233 944.774 160.209 962.532ZM92.8596 876.985C103.1 892.898 115.518 906.969 129.853 919.21C118.028 900.151 107.838 880.044 99.2842 859.082C92.4417 853.586 85.9871 847.687 79.9467 841.383C71.1367 832.187 63.3644 822.25 56.6646 811.626C57.4965 813.415 58.3434 815.201 59.2052 816.983L59.1538 817.008C69.0529 837.409 80.2802 857.438 92.8596 876.985ZM33.0379 753.695C30.1537 743.373 27.7092 732.967 25.696 722.494C23.4276 717.764 21.3549 712.917 19.4805 707.956C23.3319 723.309 27.8481 738.569 33.0379 753.695ZM12.1289 674.324L12.273 674.297C14.8859 688.259 18.8642 701.52 24.1616 714.01C20.4956 692.384 18.6471 670.497 18.5435 648.503C11.2665 633.333 6.13686 616.874 3.25736 599.288C4.53285 624.353 7.47775 649.421 12.1289 674.324ZM4.17886 527.107C5.2321 513.324 6.78605 499.592 8.83443 485.94C8.56369 491.519 8.50715 497.008 8.66192 502.402C6.87622 510.569 5.37909 518.806 4.17886 527.107ZM538.763 578.794C540.143 581.145 541.527 583.5 542.914 585.858C556.469 608.901 569.897 631.519 583.129 653.611C620.037 631.86 655.917 607.056 689.805 579.521C673.182 558.102 655.935 536.389 638.136 514.506C637.874 514.184 637.612 513.862 637.35 513.541L635.718 511.537C605.112 536.362 572.49 558.918 538.763 578.794ZM536.958 579.855C538.338 582.206 539.722 584.561 541.11 586.919C554.664 609.962 568.092 632.579 581.324 654.672C543.635 676.762 504.892 695.67 466.117 711.055C454.559 685.223 443.259 658.531 432.318 631.115C442.994 626.868 453.652 622.334 464.268 617.525C488.827 606.398 513.163 593.794 536.958 579.855ZM537.703 576.989C571.342 557.165 603.874 534.669 634.395 509.915C615.721 487.032 597.116 464.791 578.701 443.303C558.125 459.97 536.395 475.577 513.871 489.896C507.354 494.038 500.771 498.073 494.129 501.995C508.214 526.487 522.764 551.534 537.703 576.989ZM512.748 488.129C535.193 473.86 556.842 458.312 577.338 441.713C558.481 419.735 539.828 398.549 521.511 378.275C499.861 395.839 476.365 412.223 451.429 426.93C464.772 450.657 478.684 475.126 493.085 500.18C499.7 496.274 506.257 492.255 512.748 488.129ZM450.403 425.105C436.868 401.021 423.924 377.709 411.655 355.334C416.507 352.462 421.343 349.476 426.159 346.378C440.076 337.422 453.207 327.911 465.479 317.986C483.244 336.535 501.499 356.154 520.104 376.72C498.571 394.182 475.203 410.475 450.403 425.105ZM375.829 289.053C386.689 309.467 398.325 331.004 410.649 353.497C415.457 350.649 420.252 347.689 425.026 344.617C438.83 335.733 451.854 326.304 464.026 316.469C446.14 297.824 428.757 280.272 412.018 263.94C403.718 270.639 394.843 277.06 385.443 283.11C382.251 285.164 379.045 287.145 375.829 289.053ZM374.845 287.203C365.01 268.698 355.818 251.127 347.335 234.618C346.488 232.97 345.648 231.332 344.816 229.704C346.312 228.811 347.803 227.886 349.289 226.93C353.938 223.938 358.336 220.766 362.458 217.457C363.107 218.04 363.758 218.625 364.411 219.212C379.096 232.431 394.504 246.887 410.508 262.468C402.325 269.062 393.576 275.386 384.31 281.349C381.167 283.372 378.01 285.323 374.845 287.203ZM348.156 225.169C346.729 226.087 345.296 226.977 343.86 227.836C335.465 211.409 327.808 196.092 320.957 182.017C333.506 192.132 346.849 203.507 360.876 216.042C356.892 219.224 352.645 222.28 348.156 225.169ZM322.957 180.94C335.418 191.007 348.643 202.296 362.524 214.706C367.848 210.327 372.68 205.725 376.969 201.002C372.923 199.291 368.907 197.636 364.922 196.037C350.501 190.253 336.489 185.212 322.957 180.94ZM379.008 201.868C374.592 206.786 369.604 211.573 364.101 216.119C364.67 216.629 365.24 217.142 365.811 217.656C380.572 230.942 396.059 245.475 412.145 261.14C423.394 251.942 433.549 242.237 442.487 232.27C420.707 220.761 399.484 210.602 379.008 201.868ZM443.919 230.659C422.156 219.144 400.943 208.971 380.466 200.214C384.77 195.248 388.49 190.162 391.566 185.066C415.992 188.449 441.152 193.328 466.829 199.693C460.542 210.102 452.862 220.509 443.919 230.659ZM334.875 179.84C352.521 180.605 370.696 182.245 389.302 184.756C386.277 189.66 382.639 194.561 378.441 199.352C374.161 197.537 369.914 195.784 365.701 194.094C351.873 188.548 338.41 183.678 325.374 179.511C328.523 179.592 331.69 179.702 334.875 179.84ZM334.965 177.748C352.959 178.528 371.496 180.214 390.475 182.802C391.22 181.525 391.923 180.249 392.584 178.975C394.446 175.381 395.962 171.817 397.115 168.324C373.281 170.163 350.068 173.231 327.626 177.479C330.063 177.552 332.509 177.642 334.965 177.748ZM467.949 197.814C442.29 191.432 417.14 186.528 392.714 183.112C393.318 182.053 393.895 180.995 394.442 179.938C396.49 175.987 398.143 172.04 399.368 168.154C426.192 166.174 453.794 165.747 481.957 166.941C479.603 174.409 476.412 182.031 472.433 189.709C471.034 192.407 469.539 195.11 467.949 197.814ZM482.589 164.873C454.434 163.659 426.834 164.059 400.002 166.008C401.301 161.297 401.952 156.692 401.893 152.293C429.341 145.369 457.698 140 486.798 136.325C486.951 145.396 485.512 154.989 482.589 164.873ZM328.954 175.1C351.767 166.513 375.423 159.055 399.802 152.824C399.806 157.074 399.12 161.554 397.782 166.173C374.19 167.964 351.199 170.955 328.954 175.1ZM330.642 172.248C352.923 163.96 375.992 156.744 399.741 150.69C399.513 146.7 398.648 142.937 397.112 139.48C387.439 143.632 377.8 148.028 368.202 152.67C355.382 158.871 342.858 165.404 330.642 172.248ZM486.734 134.226C457.637 137.895 429.272 143.254 401.808 150.166C401.536 146.105 400.629 142.24 399.038 138.656C426.147 127.116 453.507 117.488 480.909 109.721C484.436 117.232 486.344 125.473 486.734 134.226ZM479.972 107.817C452.572 115.597 425.219 125.232 398.124 136.771C397.71 135.986 397.261 135.216 396.775 134.462C395.152 131.94 393.2 129.709 390.961 127.764C415.075 113.031 439.756 100.148 464.766 89.1677C469.628 93.1236 473.802 97.7336 477.19 102.999C478.199 104.566 479.126 106.173 479.972 107.817ZM328.891 170.831C348.44 155.539 368.552 141.557 389.08 128.918C391.397 130.843 393.389 133.069 395.015 135.595C395.435 136.249 395.828 136.916 396.192 137.597C386.521 141.75 376.884 146.145 367.291 150.785C354.178 157.127 341.375 163.817 328.891 170.831ZM327.76 169.069C347.109 153.945 367.01 140.097 387.32 127.558C384.181 125.301 380.537 123.53 376.474 122.248C359.666 136.609 343.388 152.245 327.76 169.069ZM462.906 87.7108C437.941 98.7291 413.31 111.634 389.247 126.373C386.071 123.966 382.403 122.066 378.34 120.661C386.767 113.525 395.325 106.709 404.001 100.225C415.6 91.5553 427.407 83.4781 439.386 76.0196C448.27 78.753 456.189 82.6494 462.906 87.7108ZM402.748 98.5479C393.693 105.315 384.767 112.442 375.984 119.914C371.559 118.635 366.72 117.9 361.582 117.696C375.725 100.465 390.676 84.9099 406.318 71.2096C417.253 71.3495 427.46 72.6904 436.693 75.2347C425.205 82.4484 413.88 90.2273 402.748 98.5479ZM327.001 165.694C337.384 149.321 348.376 133.971 359.914 119.742C364.988 119.831 369.736 120.437 374.063 121.557C357.06 136.156 340.605 152.056 324.819 169.164C325.544 168.003 326.271 166.846 327.001 165.694ZM325.233 164.573C335.334 148.644 346.017 133.67 357.223 119.743C356.333 119.759 355.433 119.79 354.525 119.836C350.091 120.062 345.464 120.653 340.705 121.607C333.601 136.605 327.211 152.924 321.572 170.429C322.784 168.463 324.004 166.511 325.233 164.573ZM403.164 71.2024C387.689 84.94 372.907 100.478 358.927 117.638C357.446 117.632 355.942 117.667 354.418 117.745C350.358 117.952 346.147 118.458 341.829 119.258C349.76 102.844 358.562 88.0503 368.188 75.0586C377.869 73.087 387.283 71.8679 396.3 71.4073C398.616 71.289 400.905 71.2207 403.164 71.2024ZM365.116 75.7076C355.671 88.7347 347.041 103.482 339.267 119.765C333.165 121.048 326.872 122.908 320.51 125.338C321.246 118.077 322.217 111.217 323.426 104.781C324.604 98.5124 326.005 92.6573 327.631 87.2319C340.348 82.2197 352.93 78.3745 365.116 75.7076ZM299.262 135.514C305.588 131.85 311.981 128.742 318.321 126.196C319.074 118.482 320.088 111.206 321.368 104.394C322.442 98.6796 323.705 93.2817 325.16 88.2196C312.644 93.2945 300.012 99.4961 287.512 106.813C289.413 112.003 291.749 117.893 294.5 124.448C295.971 127.951 297.559 131.642 299.262 135.514ZM292.57 125.258C294.073 128.841 295.7 132.618 297.445 136.582C295.939 137.481 294.438 138.412 292.943 139.374C288.269 142.382 283.85 145.572 279.709 148.899C275.256 145.963 270.969 143.275 266.857 140.844C261.112 137.448 255.698 134.545 250.641 132.163C258.694 125.701 267.29 119.5 276.386 113.646C279.472 111.66 282.571 109.743 285.678 107.895C287.572 113.041 289.876 118.842 292.57 125.258ZM294.076 141.135C289.657 143.979 285.472 146.985 281.541 150.114C291.878 157.017 303.088 165.227 315.066 174.648C308.673 161.352 303.062 149.266 298.297 138.512C296.886 139.358 295.479 140.232 294.076 141.135ZM265.792 142.647C269.704 144.96 273.779 147.509 278.008 150.286C272.525 154.826 267.554 159.604 263.154 164.514C251.959 162.83 241.273 161.864 231.155 161.638C227.045 161.547 223.027 161.577 219.105 161.732C227.898 152.031 237.845 142.588 248.83 133.628C254.066 136.049 259.728 139.062 265.792 142.647ZM279.835 151.493C274.613 155.778 269.863 160.279 265.632 164.897C280.603 167.273 296.466 170.911 313.086 175.755C301.19 166.422 290.073 158.304 279.835 151.493ZM231.109 163.731C240.731 163.946 250.881 164.837 261.509 166.386C257.286 171.291 253.633 176.31 250.606 181.337C230.826 184.108 212.133 188.29 194.726 193.895C200.938 183.812 208.452 173.742 217.149 163.916C221.665 163.686 226.32 163.625 231.109 163.731ZM263.964 166.755C259.858 171.42 256.283 176.192 253.288 180.971C271.568 178.54 290.76 177.301 310.711 177.247C294.318 172.54 278.692 169.026 263.964 166.755ZM193.069 196.638C210.521 190.852 229.319 186.521 249.264 183.64C248.752 184.549 248.26 185.458 247.79 186.365C245.723 190.352 244.059 194.335 242.831 198.255C220.346 206.366 199.057 215.866 179.178 226.693C181.485 219.662 184.526 212.499 188.264 205.287C189.756 202.409 191.359 199.524 193.069 196.638ZM249.648 187.329C247.895 190.712 246.449 194.067 245.324 197.363C251.524 195.163 257.815 193.068 264.191 191.08C278.443 186.635 293.123 182.721 308.182 179.354C288.606 179.506 269.796 180.809 251.893 183.269C251.097 184.624 250.348 185.978 249.648 187.329ZM178.271 229.575C198.172 218.602 219.522 208.968 242.109 200.743C240.887 205.312 240.278 209.779 240.339 214.049C216.79 227.328 194.578 241.94 173.889 257.735C173.846 248.774 175.341 239.313 178.271 229.575ZM244.526 199.87C243.203 204.362 242.494 208.725 242.434 212.874C262.668 201.571 283.878 191.25 305.95 182.005C291.886 185.221 278.161 188.916 264.814 193.078C257.949 195.219 251.185 197.484 244.526 199.87ZM173.945 260.326C194.628 244.439 216.855 229.739 240.441 216.383C240.736 220.392 241.652 224.207 243.238 227.747C220.407 245.547 199.105 264.536 179.431 284.502C176.074 277.072 174.277 268.945 173.945 260.326ZM242.471 215.239C242.658 219.213 243.471 222.966 244.945 226.421C264.286 211.442 284.715 197.314 306.173 184.166C284.024 193.468 262.751 203.859 242.471 215.239ZM180.382 286.504C200.039 266.508 221.337 247.489 244.176 229.661C244.571 230.402 244.998 231.129 245.457 231.842C247.112 234.414 249.109 236.683 251.404 238.654C237.633 253.219 224.321 268.541 211.536 284.605C206.043 291.506 200.706 298.471 195.524 305.495C190.836 301.614 186.799 297.115 183.506 291.997C182.36 290.216 181.319 288.384 180.382 286.504ZM247.217 230.709C248.771 233.124 250.661 235.265 252.849 237.131C270.034 219.063 287.927 202.171 306.396 186.483C285.181 199.524 264.982 213.522 245.855 228.354C246.27 229.158 246.724 229.943 247.217 230.709ZM213.174 285.909C225.959 269.845 239.27 254.527 253.038 239.971C256.288 242.425 260.052 244.349 264.225 245.757C248.62 268.758 234.096 293.16 220.831 318.827C211.863 316.014 203.89 312.007 197.16 306.803C202.342 299.778 207.68 292.812 213.174 285.909ZM254.491 238.439C257.645 240.784 261.329 242.625 265.45 243.957C279.15 223.899 293.674 204.915 308.9 187.095C290.128 202.97 271.946 220.095 254.491 238.439ZM222.871 319.441C236.15 293.779 250.691 269.389 266.313 246.408C270.868 247.719 275.861 248.453 281.165 248.626C270.912 272.436 261.74 297.548 253.765 323.777C242.614 323.588 232.227 322.143 222.871 319.441ZM267.557 244.584C271.974 245.789 276.843 246.447 282.061 246.557C291.158 225.627 301.093 205.714 311.784 186.947C296.277 204.981 281.492 224.225 267.557 244.584ZM255.947 323.798C263.946 297.564 273.147 272.458 283.428 248.666C284.87 248.67 286.332 248.634 287.813 248.559C292.024 248.344 296.398 247.808 300.884 246.956C296.857 270.129 293.854 294.563 291.922 320.055C282.448 321.957 273.231 323.137 264.396 323.588C261.537 323.734 258.719 323.804 255.947 323.798ZM287.707 246.468C292.062 246.245 296.603 245.671 301.271 244.748C303.198 233.878 305.351 223.289 307.726 213.002C309.84 203.842 312.131 194.919 314.596 186.249C303.705 205.21 293.591 225.362 284.339 246.57C285.447 246.56 286.57 246.526 287.707 246.468ZM294.055 319.616C296.006 294.11 299.032 269.674 303.086 246.514C309.237 245.213 315.582 243.326 321.993 240.862C324.594 262.025 328.14 284.45 332.609 307.943C319.516 313.076 306.571 316.971 294.055 319.616ZM303.48 244.287C309.416 242.984 315.539 241.126 321.733 238.718C321.612 237.717 321.494 236.718 321.378 235.723C319.282 217.772 317.882 200.752 317.192 184.786C314.516 194.054 312.04 203.622 309.766 213.473C307.459 223.463 305.362 233.741 303.48 244.287ZM323.457 235.48C323.552 236.29 323.648 237.103 323.745 237.917C329.83 235.439 335.97 232.432 342.053 228.902C333.692 212.542 326.059 197.277 319.222 183.236C319.886 199.557 321.302 217.016 323.457 235.48ZM343.008 230.768C336.701 234.423 330.327 237.526 324.006 240.07C326.591 261.225 330.127 283.653 334.591 307.157C347.368 302.032 360.271 295.731 373.04 288.267C363.184 269.724 353.973 252.117 345.473 235.575C344.645 233.962 343.823 232.36 343.008 230.768ZM318.102 128.544C312.121 131.001 306.089 133.968 300.112 137.441C304.855 148.151 310.444 160.198 316.817 173.459C316.453 157.246 316.875 142.227 318.102 128.544ZM318.88 171.98C318.565 155.96 319.028 141.144 320.284 127.67C326.337 125.304 332.325 123.464 338.138 122.153C330.963 137.483 324.533 154.142 318.88 171.98ZM413.653 262.611C430.393 278.948 447.775 296.502 465.656 315.145C482.53 301.374 497.738 286.825 511.086 271.878C488.431 257.722 466.138 244.831 444.393 233.28C435.343 243.414 425.053 253.274 413.653 262.611ZM445.82 231.667C467.565 243.233 489.852 256.132 512.496 270.29C525.935 255.063 537.445 239.438 546.82 223.812C520.501 214.49 494.475 206.624 468.954 200.223C462.615 210.801 454.858 221.368 445.82 231.667ZM470.065 198.343C495.587 204.765 521.606 212.647 547.911 221.977C550.306 217.914 552.556 213.852 554.657 209.798C560.632 198.27 565.401 186.82 568.89 175.604C540.23 171.129 511.904 168.295 484.119 167.036C481.706 174.813 478.408 182.73 474.291 190.672C472.967 193.227 471.558 195.785 470.065 198.343ZM484.74 164.969C512.53 166.247 540.854 169.097 569.506 173.582C573.949 158.673 576.108 144.198 575.805 130.526C569.337 130.559 562.844 130.676 556.328 130.879C533.473 131.592 510.969 133.34 488.889 136.064C489.069 145.289 487.64 155.005 484.74 164.969ZM488.82 133.966C510.907 131.246 533.413 129.499 556.263 128.787C562.778 128.584 569.271 128.466 575.739 128.433C575.197 115.187 572.306 102.722 566.9 91.3841C539.03 95.3961 510.972 101.298 482.952 109.145C486.495 116.8 488.41 125.146 488.82 133.966ZM482.028 107.236C510.027 99.3807 538.07 93.4594 565.932 89.4196C564.629 86.8569 563.193 84.354 561.624 81.9152C556.562 74.0493 550.316 67.1766 543.039 61.2935C517.501 68.317 492.047 77.3127 466.919 88.2275C471.585 92.1564 475.626 96.6997 478.951 101.866C480.075 103.612 481.1 105.403 482.028 107.236ZM465.097 86.749C490.147 75.8125 515.526 66.7746 540.997 59.6893C530.881 51.9651 518.898 46.0573 505.429 41.9569C483.808 50.8768 462.514 61.7931 441.73 74.5695C450.532 77.4635 458.404 81.516 465.097 86.749ZM439.084 73.7428C459.678 60.9767 480.785 50.0253 502.226 41.0236C488.408 37.1742 473.108 35.1631 456.718 34.9813C440.117 44.4753 424.066 55.9259 408.674 69.1651C419.593 69.4777 429.82 70.9956 439.084 73.7428ZM405.544 69.1086C420.604 55.978 436.309 44.5458 452.558 34.9742C449.196 34.9998 445.791 35.1006 442.345 35.2767C428.982 35.9593 415.028 37.7732 400.681 40.7093C389.733 49.5055 379.517 60.1747 370.074 72.5511C379.045 70.8261 387.786 69.7459 396.194 69.3164C399.358 69.1548 402.476 69.0853 405.544 69.1086ZM366.984 73.1688C376.018 61.0622 385.781 50.5046 396.239 41.6516C378.27 45.5964 359.723 51.2807 340.979 58.6868C335.934 65.6065 331.749 74.3101 328.424 84.6746C341.513 79.6087 354.459 75.7682 366.984 73.1688ZM325.922 85.657C312.911 90.8407 299.776 97.2307 286.787 104.812C285.162 100.262 283.898 96.2963 283.008 92.9418C282.476 90.9377 282.083 89.1688 281.824 87.6359C300.29 76.7968 318.955 67.6123 337.453 60.0995C332.812 67.1483 328.977 75.7186 325.922 85.657ZM284.95 105.892C283.245 101.14 281.916 96.9904 280.984 93.4788C280.53 91.768 280.167 90.1966 279.9 88.7717C275.23 91.5444 270.573 94.423 265.936 97.4074C252.554 106.019 239.906 115.143 228.057 124.653C229.558 124.867 231.116 125.169 232.728 125.556C237.478 126.696 242.755 128.586 248.518 131.185C256.864 124.438 265.793 117.974 275.253 111.886C278.473 109.814 281.707 107.816 284.95 105.892ZM246.7 132.666C241.411 130.333 236.581 128.634 232.239 127.592C229.933 127.038 227.781 126.673 225.779 126.493C209.558 139.694 194.867 153.614 181.881 167.919C192.206 164.568 203.681 162.574 216.164 161.873C225.156 151.785 235.378 141.968 246.7 132.666ZM214.209 164.091C201.241 164.979 189.46 167.306 179.005 171.124C166.145 185.63 155.035 200.502 145.853 215.397C159.822 207.254 175.15 200.424 191.667 194.899C197.864 184.54 205.421 174.19 214.209 164.091ZM190.049 197.658C173.197 203.46 157.634 210.643 143.543 219.214C140.964 223.555 138.549 227.895 136.304 232.227C130.761 242.923 126.254 253.552 122.846 263.989C139.249 250.82 157.206 238.855 176.518 228.154C178.937 220.315 182.254 212.332 186.405 204.324C187.556 202.104 188.771 199.882 190.049 197.658ZM175.672 231.021C156.201 241.941 138.145 254.158 121.707 267.607C117.258 282.27 115.01 296.521 115.133 310.01C132.396 292.05 151.351 275.106 171.817 259.325C171.595 250.29 172.924 240.779 175.672 231.021ZM171.922 261.888C151.413 277.795 132.444 294.878 115.199 312.982C115.661 326.041 118.396 338.347 123.562 349.573C139.927 327.569 158.061 306.338 177.861 286.102C174.36 278.627 172.419 270.487 171.922 261.888ZM178.834 288.084C159.032 308.369 140.913 329.648 124.577 351.701C125.998 354.58 127.584 357.385 129.338 360.109C134.261 367.759 140.303 374.47 147.325 380.244C161.205 355.371 176.856 330.947 194.28 307.187C189.401 303.163 185.189 298.48 181.745 293.13C180.688 291.487 179.718 289.804 178.834 288.084ZM195.917 308.493C178.489 332.265 162.843 356.695 148.976 381.57C159.129 389.539 171.222 395.632 184.855 399.86C195.197 372.35 206.922 345.926 219.859 320.714C210.835 317.848 202.768 313.782 195.917 308.493ZM221.894 321.336C208.946 346.536 197.212 372.955 186.864 400.466C200.901 404.586 216.514 406.771 233.283 407.03C238.647 379.004 245.302 351.886 253.135 325.858C241.909 325.621 231.398 324.123 221.894 321.336ZM255.313 325.888C247.461 351.905 240.788 379.021 235.41 407.053C239.74 407.078 244.144 406.976 248.616 406.748C261.708 406.079 275.366 404.325 289.406 401.493C289.097 374.159 289.897 347.669 291.76 322.222C282.39 324.077 273.265 325.231 264.503 325.679C261.394 325.838 258.329 325.908 255.313 325.888ZM293.892 321.789C292.011 347.228 291.196 373.72 291.495 401.064C310.251 397.149 329.667 391.323 349.303 383.605C342.967 358.151 337.528 333.563 333.009 310.034C319.731 315.218 306.596 319.141 293.892 321.789ZM334.99 309.252C347.969 304.069 361.069 297.685 374.023 290.117C384.885 310.532 396.521 332.069 408.844 354.56C389.727 365.762 370.4 375.191 351.267 382.827C344.933 357.365 339.5 332.775 334.99 309.252ZM521.73 375.396C503.128 354.833 484.875 335.213 467.109 316.661C484.111 302.774 499.437 288.095 512.887 273.005C535.311 287.071 558.084 302.371 581.026 318.835C563.455 338.539 543.548 357.567 521.73 375.396ZM582.424 317.261C559.489 300.797 536.719 285.492 514.294 271.416C527.819 256.063 539.401 240.3 548.832 224.527C574.783 233.787 601.013 244.461 627.32 256.54C617.82 272.375 606.669 288.134 594.054 303.579C590.304 308.171 586.426 312.733 582.424 317.261ZM628.397 254.731C602.099 242.648 575.872 231.966 549.92 222.692C552.257 218.713 554.457 214.734 556.516 210.761C562.586 199.05 567.438 187.384 570.977 175.933C599.015 180.387 627.367 186.411 655.84 194.065C649.677 214.063 640.397 234.451 628.397 254.731ZM656.448 192.061C627.98 184.405 599.63 178.375 571.59 173.911C576.027 158.934 578.201 144.343 577.901 130.518C607.371 130.452 636.317 132.141 664.57 135.46C665.061 153.637 662.232 172.656 656.448 192.061ZM664.498 133.35C636.238 130.04 607.294 128.358 577.836 128.425C577.303 115.125 574.445 102.56 569.071 91.0753C597.34 87.1039 625.41 85.077 653.044 84.9377C658.338 96.0867 661.911 108.447 663.572 121.974C664.032 125.725 664.34 129.518 664.498 133.35ZM652.031 82.8612C624.409 83.0467 596.36 85.11 568.119 89.1063C566.7 86.2608 565.123 83.4843 563.384 80.7822C558.462 73.1333 552.46 66.4153 545.519 60.6176C570.996 53.7398 596.55 48.8257 621.943 45.9278C634.626 56.0778 644.801 68.4229 652.031 82.8612ZM619.585 44.0876C594.301 47.0863 568.869 52.0728 543.521 58.9938C533.531 51.1012 521.717 45.0193 508.466 40.7183C529.696 32.1556 551.232 25.5182 572.9 20.9346C590.708 26.3201 606.42 34.0731 619.585 44.0876ZM568.67 19.7106C547.355 24.4578 526.184 31.1751 505.321 39.7389C491.636 35.6545 476.5 33.4044 460.319 32.9577C476.428 24.0616 493.043 17.002 510.066 11.9299C527.599 12.1398 544.089 13.9725 559.29 17.3703C562.474 18.0821 565.601 18.8623 568.67 19.7106ZM503.051 11.9319C487.014 17.2079 471.359 24.2351 456.169 32.8828C451.601 32.8436 446.955 32.9448 442.238 33.1858C430.042 33.8088 417.365 35.3658 404.355 37.8486C414.87 29.9191 426.035 23.6838 437.816 19.2837C460.654 14.6073 482.524 12.1861 503.051 11.9319ZM426.757 21.7078C417.316 26.2189 408.309 31.9311 399.752 38.7629C381.487 42.5319 362.606 48.1026 343.509 55.4529C348.406 49.6275 354.03 45.3269 360.384 42.6466C383.087 33.6707 405.311 26.7145 426.757 21.7078ZM150.474 188.275C157.362 181.822 165.495 176.671 174.765 172.785C162 187.512 151.022 202.597 142.014 217.69C129.992 225.041 119.028 233.402 109.238 242.781C120.785 224.454 134.592 206.163 150.474 188.275ZM104.478 250.552C114.774 239.638 126.578 229.986 139.731 221.589C137.878 224.816 136.115 228.042 134.446 231.263C128.323 243.076 123.44 254.841 119.893 266.387C104.425 279.088 90.3821 292.882 77.9356 307.715C84.129 288.962 93.0475 269.766 104.478 250.552ZM76.2377 313.07C88.7674 297.588 103.026 283.208 118.827 269.989C114.69 284.545 112.708 298.72 113.077 312.162C96.2448 329.891 81.0541 348.594 67.6768 368.131C67.5351 350.576 70.4635 332.073 76.2377 313.07ZM67.7509 371.778C81.0936 351.994 96.3008 333.051 113.195 315.098C113.888 328.051 116.812 340.288 122.144 351.487C105.819 373.621 91.2799 396.53 78.6297 419.992C73.6706 409.186 70.3073 397.262 68.7111 384.26C68.2079 380.161 67.8888 375.998 67.7509 371.778ZM79.7408 422.34C92.3458 398.799 106.861 375.808 123.182 353.592C124.511 356.203 125.976 358.754 127.577 361.242C132.699 369.201 138.989 376.152 146.29 382.107C132.184 407.568 119.932 433.494 109.533 459.655C96.926 449.386 86.849 436.914 79.7408 422.34ZM111.233 461.014C121.608 434.845 133.845 408.906 147.945 383.426C158.236 391.446 170.433 397.567 184.12 401.822C178.474 416.966 173.246 432.437 168.464 448.214C164.749 460.474 161.36 472.729 158.292 484.966C140.271 479.391 124.425 471.37 111.233 461.014ZM170.468 448.821C175.25 433.043 180.479 417.572 186.128 402.43C200.316 406.609 216.052 408.827 232.886 409.117C227.681 436.692 223.724 465.14 221.125 494.289C203.999 494.017 187.878 492.191 172.993 488.864C168.654 487.894 164.421 486.797 160.298 485.574C163.364 473.338 166.752 461.082 170.468 448.821ZM223.225 494.314C225.829 465.16 229.795 436.712 235.012 409.143C239.509 409.178 244.082 409.076 248.723 408.839C261.801 408.171 275.431 406.429 289.432 403.623C289.794 430.688 291.242 458.572 293.819 487.082C268.975 492.127 245.282 494.5 223.225 494.314ZM295.882 486.658C293.311 458.141 291.872 430.256 291.52 403.197C310.442 399.273 330.021 393.417 349.815 385.654C356.139 410.915 363.344 437.02 371.407 463.782C345.454 474.012 320.129 481.603 295.882 486.658ZM409.85 356.397C390.578 367.687 371.084 377.187 351.778 384.877C358.097 410.134 365.299 436.24 373.361 463.007C379.117 460.712 384.903 458.286 390.715 455.73C410.689 446.946 430.039 437.022 448.598 426.165C435.063 402.084 422.119 378.773 409.85 356.397ZM523.136 376.951C541.455 397.228 560.108 418.415 578.964 440.392C605.013 419.161 629.174 396.23 650.708 372.072C628.006 353.66 605.292 336.301 582.736 320.064C565.076 339.885 545.067 359.022 523.136 376.951ZM584.132 318.489C606.69 334.733 629.403 352.095 652.1 370.505C672.885 347.012 691.183 322.373 706.321 297.017C680.682 282.483 654.923 269.282 629.232 257.42C619.644 273.426 608.391 289.335 595.676 304.904C591.952 309.463 588.103 313.993 584.132 318.489ZM630.308 255.611C656 267.48 681.757 280.684 707.39 295.216C710.632 289.723 713.726 284.197 716.665 278.642C727.03 259.047 734.976 240.013 740.615 221.71C721.483 214.329 701.824 207.558 681.683 201.454C673.737 199.046 665.795 196.765 657.863 194.612C651.662 214.753 642.338 235.253 630.308 255.611ZM658.47 192.607C666.403 194.762 674.344 197.042 682.29 199.45C702.43 205.554 722.09 212.323 741.226 219.702C748.505 195.42 751.709 172.443 751.106 151.174C723.815 144.396 695.61 139.197 666.672 135.71C667.129 154.023 664.269 173.139 658.47 192.607ZM666.604 133.6C695.529 137.075 723.733 142.256 751.031 149.012C750.159 127.601 745.396 107.953 737.019 90.4838C710.404 86.7667 683.104 84.8962 655.357 84.9304C660.51 96.0353 664.004 108.312 665.65 121.719C666.131 125.637 666.447 129.599 666.604 133.6ZM654.365 82.85C682.061 82.7699 709.321 84.5793 735.909 88.2224C734.139 84.7026 732.219 81.2739 730.152 77.94C722.104 64.9558 711.809 53.3822 699.392 43.436C674.867 42.1526 649.946 42.8922 624.858 45.6039C637.288 55.8999 647.27 68.3465 654.365 82.85ZM622.557 43.7441C647.434 40.9457 672.158 40.0754 696.508 41.184C680.973 29.3615 662.297 19.9832 640.706 13.442C619.503 13.6132 598.256 15.8612 577.124 20.0674C594.431 25.7036 609.725 33.6278 622.557 43.7441ZM572.99 18.7759C593.189 14.5336 613.507 12.0651 633.805 11.4751C613.33 5.99638 590.395 2.96577 565.177 2.69169C548.808 3.34644 532.697 5.82235 516.92 10.0012C532.058 10.5543 546.388 12.3412 559.747 15.3271C564.274 16.3392 568.691 17.4893 572.99 18.7759ZM72.787 317.417C61.1213 332.408 51.051 348.4 42.7398 365.34C35.7338 388.386 32.3903 410.253 32.4771 430.606C41.7009 410.088 52.8069 390.223 65.6365 371.139C65.1566 353.99 67.6131 335.946 72.787 317.417ZM65.7805 374.727C52.8423 394.263 41.7155 414.608 32.5687 435.619C33.2569 456.84 37.747 476.342 45.7655 493.732C54.3723 469.526 64.9488 445.643 77.3934 422.298C71.984 410.933 68.3285 398.324 66.6331 384.515C66.237 381.289 65.9534 378.025 65.7805 374.727ZM78.5293 424.616C66.1034 448.086 55.5736 472.096 47.0421 496.421C49.3296 501.106 51.8786 505.631 54.6837 509.99C62.2963 521.819 71.8082 532.441 83.1199 541.688C89.7551 514.946 98.2904 488.202 108.726 461.693C96.0482 451.483 85.834 439.092 78.5293 424.616ZM110.433 463.043C100.011 489.587 91.5039 516.362 84.9083 543.127C100.592 555.542 119.613 565.384 141.72 572.228C145.369 544.061 150.701 515.585 157.785 487C139.717 481.421 123.768 473.4 110.433 463.043ZM159.792 487.606C152.709 516.2 147.386 544.679 143.751 572.845C165.49 579.34 190.154 582.972 217.509 583.347C217.467 577.548 217.479 571.727 217.546 565.886C217.815 542.347 218.964 519.152 220.941 496.38C203.737 496.098 187.525 494.257 172.536 490.907C168.183 489.934 163.933 488.833 159.792 487.606ZM223.04 496.407C221.06 519.174 219.909 542.369 219.64 565.91C219.573 571.75 219.561 577.571 219.603 583.37C225.55 583.415 231.624 583.308 237.82 583.043C259.801 582.106 282.307 579.239 305.038 574.635C300.25 545.675 296.588 517.129 294.01 489.18C269.057 494.232 245.238 496.606 223.04 496.407ZM296.074 488.756C298.645 516.702 302.303 545.249 307.09 574.214C337.391 567.941 368.073 558.594 398.421 546.624C388.802 519.169 379.993 492.165 372.015 465.793C345.937 476.062 320.473 483.684 296.074 488.756ZM373.968 465.019C379.803 462.694 385.668 460.237 391.557 457.647C411.594 448.835 431.005 438.881 449.624 427.991C462.967 451.719 476.88 476.188 491.281 501.242C461.844 518.507 431.288 533.537 400.369 545.852C390.75 518.393 381.943 491.388 373.968 465.019ZM636.019 508.594C617.347 485.713 598.742 463.472 580.327 441.982C606.465 420.675 630.715 397.655 652.335 373.393C669.884 387.665 687.424 402.566 704.874 418.063C709.382 422.067 713.852 426.082 718.282 430.106C693.336 458.147 665.637 484.436 636.019 508.594ZM706.264 416.498C688.815 401.002 671.277 386.101 653.727 371.826C674.579 348.25 692.943 323.516 708.142 298.051C713.975 301.373 719.802 304.764 725.621 308.223C745.063 319.784 763.875 331.797 782.015 344.191C770.304 363.755 756.549 383.571 740.721 403.461C733.955 411.963 726.931 420.326 719.671 428.539C715.241 424.516 710.772 420.501 706.264 416.498ZM726.691 306.424C720.872 302.964 715.045 299.573 709.21 296.25C712.463 290.739 715.567 285.195 718.515 279.621C728.905 259.98 736.889 240.871 742.57 222.467C769.904 233.092 796.155 244.966 821.193 257.924C812.894 285.127 800.225 313.475 783.089 342.389C764.944 329.995 746.131 317.983 726.691 306.424ZM821.807 255.885C796.762 242.938 770.51 231.076 743.182 220.459C750.483 196.154 753.75 173.099 753.216 151.702C780.823 158.652 807.486 167.22 833.015 177.267C833.727 201.865 830.026 228.275 821.807 255.885ZM832.936 175.002C807.399 164.995 780.74 156.462 753.149 149.539C752.354 128.145 747.726 108.439 739.503 90.8364C766.092 94.6709 791.987 100.352 816.949 107.823C823.782 122.123 828.462 137.624 830.96 154.109C831.991 160.909 832.65 167.878 832.936 175.002ZM815.696 105.263C790.773 97.9088 764.936 92.3267 738.42 88.5723C736.448 84.5455 734.284 80.632 731.932 76.837C724.237 64.4236 714.539 53.2997 702.951 43.6366C727.045 45.0923 750.745 48.5092 773.832 53.9358C791.878 68.3243 805.858 85.6256 815.696 105.263ZM769.853 50.86C747.123 45.7864 723.823 42.6371 700.158 41.3652C685.453 29.699 667.87 20.2892 647.627 13.4601C667.396 13.7235 687.111 15.8058 706.642 19.8033C731.254 27.2285 752.346 37.7402 769.853 50.86ZM10.763 502.64C15.4567 481.254 22.1426 460.351 30.6707 440.056C31.8507 460.629 36.626 479.583 44.7746 496.545C36.4299 520.461 30.0082 544.683 25.607 569.002C16.541 549.142 11.4946 526.879 10.763 502.64ZM27.1611 572.301C31.4331 547.772 37.7728 523.329 46.0805 499.189C48.1611 503.29 50.4431 507.269 52.9232 511.123C60.8392 523.424 70.7595 534.419 82.5659 543.939C75.9984 570.84 71.3535 597.731 68.6309 624.372C55.65 613.788 44.7434 601.628 36.0209 588.074C32.7622 583.01 29.8068 577.75 27.1611 572.301ZM70.5712 625.93C73.2306 599.254 77.8266 572.317 84.3614 545.364C100.203 557.739 119.323 567.526 141.45 574.334C137.816 603.036 135.929 631.412 135.717 659.254C110.345 651.401 88.5378 640.138 70.5712 625.93ZM137.806 659.891C137.993 632.048 139.861 603.663 143.483 574.948C165.365 581.447 190.131 585.067 217.526 585.441C217.805 614.94 219.477 643.888 222.444 672.117C201.386 671.789 181.07 669.74 161.758 665.853C153.459 664.182 145.473 662.19 137.806 659.891ZM224.551 672.144C221.578 643.919 219.9 614.969 219.62 585.463C225.594 585.509 231.692 585.4 237.91 585.135C259.982 584.194 282.573 581.318 305.381 576.701C307.917 591.877 310.761 607.166 313.92 622.54C316.662 635.882 319.596 649.071 322.712 662.092C288.947 668.982 255.939 672.462 224.551 672.144ZM315.971 622.119C312.811 606.744 309.968 591.456 307.434 576.281C337.862 569.987 368.661 560.608 399.115 548.601C408.075 574.094 417.732 599.971 428.068 626.09C428.577 627.375 429.086 628.659 429.596 629.941C394.493 643.786 359.243 654.498 324.763 661.669C321.647 648.649 318.713 635.461 315.971 622.119ZM430.015 625.32C419.677 599.198 410.021 573.32 401.063 547.829C432.112 535.467 462.785 520.381 492.324 503.057C506.41 527.549 520.96 552.596 535.898 578.049C512.169 591.95 487.898 604.521 463.404 615.618C452.816 620.415 442.187 624.936 431.543 629.17C431.322 628.616 431.102 628.061 430.882 627.507C430.593 626.778 430.304 626.05 430.015 625.32ZM638.319 511.414C638.799 512.004 639.279 512.594 639.76 513.185C657.558 535.066 674.805 556.778 691.428 578.198C713.096 560.503 733.94 541.689 753.707 521.84C763.698 511.807 773.212 501.713 782.248 491.58C762.462 471.439 741.628 451.365 719.831 431.515C694.813 459.636 667.038 485.995 637.342 510.216L638.319 511.414ZM721.22 429.948C743.015 449.796 763.851 469.869 783.642 490.012C811.055 459.092 834.014 427.832 852.462 396.918C830.822 379.176 807.883 361.938 783.745 345.375C771.994 364.995 758.207 384.851 742.359 404.765C735.564 413.303 728.511 421.701 721.22 429.948ZM784.819 343.573C808.953 360.129 831.895 377.36 853.544 395.097C872.29 363.393 886.288 332.068 895.477 301.862C872.7 286.536 848.523 272.16 823.082 258.905C814.714 286.213 801.985 314.629 784.819 343.573ZM823.699 256.866C849.136 270.103 873.318 284.458 896.108 299.764C902.044 279.8 905.871 260.333 907.572 241.581C908.452 231.887 908.763 222.385 908.504 213.104C885.335 200.033 860.813 188.319 835.132 178.105C835.74 202.807 831.956 229.261 823.699 256.866ZM835.064 175.84C860.725 186.003 885.242 197.658 908.423 210.666C907.38 183.829 901.528 158.877 890.817 136.523C868.18 125.503 844.379 116.189 819.648 108.639C826.128 122.636 830.599 137.752 833.03 153.796C834.117 160.967 834.795 168.321 835.064 175.84ZM818.435 106.08C843.04 113.488 866.74 122.632 889.308 133.456C888.238 131.336 887.124 129.24 885.965 127.169C875.417 108.324 861.154 91.5119 843.12 77.2167C822.3 67.9319 800.7 60.5629 778.515 55.0663C795.688 69.5084 809.025 86.6874 818.435 106.08ZM9.07729 510.781C5.17359 530.832 3.01802 551.288 2.73214 572.049C3.57799 598.098 8.9437 622.072 18.5498 643.539C18.7198 619.933 20.8908 596.219 24.9732 572.586C16.0401 553.978 10.6684 533.254 9.07729 510.781ZM26.565 575.805C22.5664 599.882 20.5634 624.033 20.6501 648.053C31.3469 670.182 46.6818 689.521 66.3328 705.57C65.1013 679.752 65.7842 653.437 68.3818 626.863C54.7697 615.95 43.3516 603.334 34.2603 589.207C31.4744 584.878 28.9082 580.409 26.565 575.805ZM70.3302 628.402C67.7907 655.061 67.1877 681.451 68.5191 707.327C81.8574 717.886 97.1162 726.967 114.2 734.424C122.623 738.1 131.367 741.338 140.402 744.149C137.168 717.28 135.577 689.638 135.703 661.441C110.348 653.663 88.4573 642.505 70.3302 628.402ZM137.794 662.072C137.693 690.291 139.318 717.948 142.592 744.821C171.155 753.447 202.571 757.852 235.922 758.333C230.222 731.169 225.768 703.07 222.666 674.214C201.397 673.897 180.868 671.835 161.345 667.905C153.198 666.265 145.345 664.317 137.794 662.072ZM224.775 674.24C227.885 703.103 232.352 731.202 238.067 758.359C272.47 758.682 308.904 754.857 346.368 747.209C337.843 720.426 330.085 692.683 323.201 664.129C289.37 671.037 256.275 674.539 224.775 674.24ZM325.252 663.706C332.139 692.265 339.902 720.008 348.43 746.785C373.563 741.566 399.151 734.632 424.893 726.081C437.96 721.741 451.065 716.985 464.168 711.826C452.61 685.99 441.311 659.298 430.371 631.885C395.196 645.759 359.85 656.506 325.252 663.706ZM582.4 656.468C544.641 678.601 505.825 697.547 466.974 712.968C478.844 739.424 490.984 764.972 503.283 789.465C544.563 773.104 585.96 752.927 626.422 729.177C612.064 705.713 597.358 681.428 582.4 656.468ZM425.553 728.068C399.822 736.615 374.227 743.556 349.071 748.789C357.825 776.102 367.375 802.402 377.605 827.53C383.23 826.366 388.88 825.121 394.55 823.796C429.58 815.612 465.403 804.372 501.328 790.237C489.029 765.74 476.892 740.191 465.025 713.738C451.856 718.925 438.686 723.706 425.553 728.068ZM347.009 749.215C309.516 756.882 273.018 760.743 238.511 760.457C244.374 787.958 251.518 814.484 259.83 839.848C296.43 840.178 335.348 836.135 375.519 827.958C365.297 802.822 355.755 776.521 347.009 749.215ZM236.366 760.433C203.008 759.989 171.541 755.645 142.873 747.091C146.261 774.093 151.318 800.295 157.961 825.474C188.261 834.618 221.815 839.326 257.619 839.823C249.331 814.45 242.21 787.925 236.366 760.433ZM113.362 736.343C96.727 729.082 81.7999 720.29 68.6695 710.105C70.1278 735.741 73.4903 760.864 78.7548 785.235C81.8111 787.66 84.9622 790.012 88.207 792.291C108.057 806.228 130.712 817.007 155.607 824.752C149.026 799.579 144.025 773.397 140.68 746.427C131.255 743.53 122.138 740.172 113.362 736.343ZM76.1543 783.135C71.056 758.866 67.8292 733.868 66.4742 708.375C47.0456 692.834 31.6858 674.164 20.6949 652.83C21.0471 676.038 23.3591 699.111 27.7159 721.864C39.0602 745.417 55.3184 766.015 76.1543 783.135ZM893.824 138C904.126 160.383 909.679 185.24 910.561 211.871C933.645 224.955 955.388 239.384 975.596 255.022C974.484 226.471 968.243 199.821 956.678 175.857C937.012 161.625 915.986 148.988 893.824 138ZM909.657 241.77C907.925 260.866 904.008 280.68 897.927 300.99C920.885 316.51 942.417 332.995 962.381 350.27C963.633 346.07 964.798 341.888 965.875 337.727C973.067 309.96 976.382 283.119 975.686 257.746C955.493 242.006 933.742 227.479 910.628 214.309C910.829 223.274 910.504 232.437 909.657 241.77ZM897.292 303.088C888.02 333.368 873.959 364.73 855.181 396.442C877.147 414.52 897.772 433.12 916.949 452.064C936.857 418.343 951.852 384.861 961.72 352.467C941.777 335.159 920.253 318.64 897.292 303.088ZM854.098 398.262C835.579 429.252 812.56 460.562 785.112 491.51C805.328 512.144 824.447 532.849 842.378 553.457C871.497 520.604 896.055 487.153 915.848 453.92C896.686 434.967 876.067 416.355 854.098 398.262ZM755.19 523.317C735.36 543.23 714.449 562.103 692.712 579.853C710.506 602.808 727.58 625.424 743.847 647.546C748.706 643.581 753.531 639.561 758.321 635.485C788.965 609.407 816.557 582.433 840.976 555.035C823.052 534.426 803.936 513.719 783.717 493.078C774.682 503.206 765.172 513.293 755.19 523.317ZM742.221 648.87C725.957 626.749 708.883 604.133 691.088 581.175C657.133 608.762 621.185 633.613 584.205 655.407C599.163 680.368 613.869 704.652 628.227 728.115C667.438 704.981 705.755 678.492 742.221 648.87ZM887.792 126.146C889.407 129.032 890.936 131.964 892.379 134.942C914.301 145.654 935.135 157.964 954.667 171.822C943.176 149.476 926.924 129.566 905.748 112.751C888.125 100.351 869.651 89.6444 850.482 80.5958C865.886 93.9203 878.315 109.216 887.792 126.146ZM743.463 650.559C706.95 680.212 668.583 706.734 629.32 729.901C643.905 753.722 658.126 776.689 671.882 798.65C700.216 781.918 728.206 763.442 755.545 743.268C767.505 734.442 779.121 725.453 790.384 716.322C775.648 695.025 759.976 673.05 743.463 650.559ZM504.228 791.343C545.563 774.95 587.008 754.741 627.516 730.963C642.099 754.783 656.321 777.751 670.077 799.713C627.833 824.537 584.842 845.488 542.129 862.422C529.409 839.925 516.737 816.181 504.228 791.343ZM378.41 829.501C383.928 828.356 389.467 827.134 395.026 825.835C430.214 817.614 466.195 806.319 502.273 792.115C514.776 816.95 527.444 840.695 540.163 863.198C496.636 880.332 453.413 893.29 411.58 901.917C399.91 879.097 388.813 854.903 378.41 829.501ZM260.521 841.947C297.213 842.221 336.171 838.128 376.323 829.93C386.712 855.325 397.795 879.521 409.451 902.352C396.769 904.926 384.217 907.101 371.825 908.872C343.322 912.946 315.678 914.884 289.257 914.64C278.574 891.721 268.957 867.426 260.521 841.947ZM158.594 827.85C188.984 836.875 222.555 841.486 258.309 841.925C266.712 867.389 276.292 891.681 286.935 914.613C249.62 914.085 214.779 909.176 183.446 899.75C179.055 889.548 174.964 879.096 171.181 868.412C166.512 855.23 162.312 841.697 158.594 827.85ZM79.4606 788.447C81.9165 790.345 84.4311 792.198 87.0039 794.004C107.381 808.312 130.661 819.308 156.237 827.139C160.051 841.475 164.379 855.479 169.207 869.111C172.804 879.269 176.679 889.22 180.826 898.948C150.576 889.544 123.665 875.872 101.043 857.807C92.0053 835.579 84.8105 812.383 79.4606 788.447ZM29.2663 729.541C40.8963 751.301 56.853 770.4 76.8514 786.395C81.9998 810.058 88.937 833.014 97.6626 855.048C91.9705 850.3 86.5638 845.263 81.4585 839.934C67.8002 825.678 56.6656 809.623 48.1845 791.971C40.0444 771.557 33.7614 750.697 29.2663 729.541ZM964.116 351.777C965.478 347.247 966.74 342.738 967.902 338.252C974.974 310.948 978.325 284.494 977.817 259.416C997.77 275.139 1016.18 292.055 1032.85 310.024C1033.71 340.408 1028.99 372.723 1019.03 406.095C1002.4 387.317 984.051 369.152 964.116 351.777ZM918.483 453.583C938.419 419.887 953.481 386.405 963.448 353.973C983.386 371.402 1001.73 389.622 1018.32 408.452C1015.14 418.875 1011.45 429.399 1007.26 439.997C997.888 463.699 986.026 487.761 971.79 511.882C955.574 492.224 937.768 472.73 918.483 453.583ZM843.763 555.051C872.908 522.191 897.518 488.718 917.38 455.439C936.666 474.61 954.461 494.124 970.655 513.797C950.009 548.479 924.463 583.267 894.369 617.265C878.788 596.744 861.888 575.949 843.763 555.051ZM842.36 556.629C860.486 577.537 877.382 598.339 892.952 618.861C863.507 651.944 829.753 684.265 792.014 714.998C777.274 693.698 761.601 671.724 745.088 649.236C749.986 645.24 754.85 641.187 759.678 637.079C790.312 611.01 817.914 584.038 842.36 556.629ZM977.746 256.695C976.859 228.594 971.079 202.259 960.205 178.437C979.137 192.438 996.774 207.938 1012.91 224.889C1025.02 249.802 1031.52 277.38 1032.74 306.816C1016.05 289.019 997.652 272.267 977.746 256.695ZM671.189 801.488C628.929 826.325 585.916 847.298 543.171 864.261C555.999 886.874 568.873 908.215 581.676 928.124C624.724 911.036 668.224 889.835 711.226 864.569C698.426 844.675 685.046 823.595 671.189 801.488ZM541.205 865.038C497.674 882.19 454.438 895.179 412.572 903.85C424.344 926.729 436.692 948.212 449.492 968.129C491.71 959.436 535.454 946.346 579.692 928.909C566.892 908.99 554.024 887.647 541.205 865.038ZM372.121 910.944C343.898 914.978 316.485 916.929 290.24 916.74C298.783 934.89 307.997 952.168 317.823 968.476C320.367 972.699 322.953 976.856 325.578 980.947C335.775 981.047 346.161 980.827 356.714 980.288C385.785 978.803 416.117 974.893 447.292 968.578C434.515 948.643 422.191 927.157 410.442 904.287C397.526 906.92 384.741 909.141 372.121 910.944ZM287.917 916.718C250.732 916.271 215.928 911.504 184.535 902.259C194.371 924.763 205.677 946.028 218.376 965.838C249.974 975.333 285.21 980.345 323.072 980.915C320.691 977.183 318.344 973.396 316.03 969.556C306.001 952.912 296.61 935.265 287.917 916.718ZM181.91 901.473C152.042 892.383 125.326 879.186 102.667 861.741C111.707 883.339 122.506 904 135.061 923.511C157.699 941.581 184.755 955.363 215.294 964.894C202.765 945.1 191.612 923.889 181.91 901.473ZM1035 312.354C1035.56 342.674 1030.66 374.826 1020.66 407.944C1025.49 413.443 1030.17 418.994 1034.69 424.593C1045.58 438.059 1055.6 451.802 1064.69 465.76C1074.71 432.122 1079.48 399.451 1078.56 368.629C1065.85 348.945 1051.27 330.142 1035 312.354ZM1009.21 440.767C999.708 464.79 987.667 489.172 973.205 513.603C989.366 533.316 1003.93 553.189 1016.77 573.038C1022.14 563.948 1027.18 554.859 1031.88 545.789C1045.4 519.702 1056.14 493.775 1063.89 468.385C1054.59 453.983 1044.3 439.801 1033.07 425.909C1028.82 420.663 1024.45 415.459 1019.94 410.3C1016.83 420.376 1013.25 430.54 1009.21 440.767ZM972.067 515.518C951.353 550.212 925.766 584.99 895.658 618.966C911.261 639.597 925.526 659.944 938.356 679.832C968.694 645.522 994.597 610.282 1015.58 575.049C1002.77 555.175 988.224 535.269 972.067 515.518ZM894.24 620.562C864.746 653.665 830.959 685.993 793.208 716.725C808.036 738.186 821.91 758.956 834.734 778.868C872.762 747.899 906.974 715.134 936.914 681.459C924.1 661.567 909.843 641.209 894.24 620.562ZM833.099 780.196C820.279 760.286 806.407 739.515 791.578 718.049C780.328 727.166 768.729 736.141 756.788 744.953C729.409 765.157 701.374 783.662 672.994 800.424C686.852 822.533 700.232 843.613 713.032 863.506C724.028 857.014 734.991 850.255 745.905 843.232C776.795 823.353 805.915 802.234 833.099 780.196ZM1017.51 229.8C1028.32 254.136 1034.03 280.826 1034.92 309.155C1051.11 326.657 1065.66 345.154 1078.4 364.518C1077.03 335.203 1070.44 307.614 1058.23 282.522C1046.13 263.683 1032.5 246.095 1017.51 229.8ZM834.238 781.968C807.043 804.003 777.921 825.118 747.038 844.992C736.125 852.015 725.162 858.774 714.166 865.268C726.96 885.137 739.167 903.809 750.681 921.127C793.211 896.076 832.926 868.38 869.298 838.866C858.735 820.88 847.016 801.858 834.238 781.968ZM582.832 929.918C625.884 912.804 669.375 891.592 712.36 866.331C725.153 886.198 737.359 904.87 748.873 922.189C742.572 925.882 736.211 929.517 729.789 933.091C693.514 953.282 657.023 970.566 620.881 984.915C620.284 984.115 619.687 983.312 619.089 982.505C607.138 966.369 595.019 948.794 582.832 929.918ZM450.708 970.016C492.929 961.271 536.649 948.149 580.847 930.704C593.134 949.749 605.355 967.478 617.407 983.751C617.893 984.407 618.379 985.061 618.864 985.713C575.152 1002.94 531.965 1015.87 490.303 1024.46C483.931 1016.72 477.628 1008.59 471.406 1000.1C464.394 990.528 457.489 980.491 450.708 970.016ZM326.936 983.051C336.736 983.121 346.704 982.896 356.821 982.379C386.248 980.876 416.953 976.897 448.508 970.468C455.452 981.224 462.528 991.523 469.717 1001.34C475.729 1009.54 481.821 1017.42 487.984 1024.93C457.273 1031.15 427.403 1035 398.775 1036.47C388.289 1037 377.971 1037.22 367.841 1037.11C353.355 1020.78 339.682 1002.7 326.936 983.051ZM220.12 968.537C251.721 977.759 286.825 982.567 324.427 983.027C337.068 1002.63 350.635 1020.71 365.017 1037.07C327.703 1036.46 292.979 1031.46 261.827 1022.04C246.636 1005.75 232.709 987.85 220.12 968.537ZM138.593 928.899C161.032 945.764 187.46 958.653 217.032 967.618C229.354 986.763 242.977 1004.55 257.833 1020.8C228.115 1011.35 201.752 997.793 179.623 980.093C164.392 964.182 150.715 947.058 138.593 928.899ZM1018.04 575.006C1023.63 565.582 1028.86 556.158 1033.74 546.752C1047 521.158 1057.61 495.683 1065.37 470.689C1077.92 490.369 1088.61 510.453 1097.31 530.769C1086.98 564.613 1071.3 599.314 1050.85 633.966C1043.87 619.113 1035.84 604.143 1026.82 589.137C1023.99 584.43 1021.07 579.719 1018.04 575.006ZM939.533 681.662C969.864 647.41 995.795 612.221 1016.85 577.018C1019.66 581.419 1022.39 585.819 1025.03 590.215C1034.28 605.606 1042.47 620.944 1049.56 636.143C1046.31 641.584 1042.95 647.024 1039.48 652.458C1020.67 681.856 998.495 711.086 973.308 739.59C971.378 735.886 969.388 732.157 967.339 728.405C959.026 713.182 949.741 697.571 939.533 681.662ZM938.089 683.288C948.145 698.986 957.299 714.388 965.501 729.408C967.675 733.389 969.782 737.343 971.821 741.268C942.137 774.671 908.318 807.06 870.941 837.53C860.371 819.541 848.65 800.522 835.874 780.64C873.891 749.695 908.115 716.952 938.089 683.288ZM1066.18 468.065C1076.22 434.903 1081.22 402.611 1080.73 372.035C1092.89 391.295 1103.26 411.383 1111.67 432.175C1112.64 462.602 1107.99 494.71 1098.24 527.658C1089.45 507.495 1078.72 487.574 1066.18 468.065ZM730.808 934.92C694.634 955.055 658.24 972.308 622.18 986.652C634.633 1003.25 646.885 1018.25 658.823 1031.52C674.964 1025.11 691.182 1018.1 707.424 1010.48C733.081 998.441 758.016 985.286 782.1 971.181C773.078 958.188 763.402 943.96 753.153 928.613C752.791 928.071 752.428 927.528 752.065 926.983L751.275 925.798C750.862 925.179 750.449 924.558 750.034 923.935C743.687 927.657 737.277 931.319 730.808 934.92ZM620.163 987.451C576.545 1004.68 533.433 1017.64 491.812 1026.29C505.289 1042.5 519.068 1057 533.029 1069.61C573.1 1061.35 614.654 1048.91 656.746 1032.34C644.81 1019.03 632.578 1004.02 620.163 987.451ZM398.882 1038.56C389.013 1039.06 379.289 1039.28 369.725 1039.22C384.08 1055.17 399.22 1069.42 415.037 1081.77C424.855 1081.88 434.856 1081.68 445.021 1081.16C472.449 1079.76 501.063 1076.07 530.49 1070.13C516.58 1057.45 502.874 1042.94 489.491 1026.76C458.299 1033.13 427.957 1037.07 398.882 1038.56ZM366.894 1039.19C330.081 1038.74 295.694 1034.05 264.686 1025.07C279.606 1040.7 295.718 1054.8 312.953 1067.17C342.756 1076.22 375.94 1081.06 411.592 1081.72C395.984 1069.31 381.05 1055.08 366.894 1039.19ZM1098.57 533.761C1088.06 567.447 1072.31 601.91 1051.92 636.265C1060.81 655.464 1067.95 674.461 1073.23 693.081C1092.76 659.95 1107.79 626.674 1117.7 594.091C1113.33 573.875 1106.91 553.711 1098.57 533.761ZM1041.24 653.587C1022.24 683.286 999.819 712.808 974.342 741.582C983.899 760.08 991.957 777.955 998.42 795.034C1009.38 782.631 1019.76 770.07 1029.52 757.402C1045.25 736.994 1059.38 716.314 1071.75 695.569C1066.58 676.877 1059.5 657.776 1050.62 638.443C1047.59 643.494 1044.47 648.543 1041.24 653.587ZM972.852 743.26C943.152 776.612 909.348 808.942 872.013 839.357C872.214 839.701 872.414 840.044 872.615 840.386C872.847 840.783 873.078 841.18 873.309 841.575C883.199 858.54 892.044 874.568 899.758 889.513C935.575 860.276 968.164 829.082 996.85 796.806C990.44 779.727 982.41 761.821 972.852 743.26ZM871.5 842.63C871.125 841.986 870.748 841.34 870.369 840.693C834.009 870.177 794.325 897.843 751.842 922.873C752.865 924.409 753.882 925.935 754.894 927.45C765.174 942.843 774.872 957.104 783.911 970.117C824.638 946.141 862.913 919.448 898.099 890.864C890.36 875.85 881.465 859.724 871.5 842.63ZM1113.88 437.773C1114.16 467.501 1109.21 498.713 1099.53 530.649C1107.88 550.251 1114.39 570.074 1118.93 589.964C1128 558.793 1132.34 528.292 1131.39 499.2C1127.43 478.169 1121.55 457.658 1113.88 437.773ZM899.077 892.767C863.941 921.282 825.743 947.911 785.109 971.841C794.838 985.82 803.789 998.328 811.86 1009.22C849.795 986.855 885.685 961.824 918.809 934.899C913.504 922.131 906.897 908.035 899.077 892.767ZM660.321 1033.17C676.263 1026.83 692.278 1019.89 708.313 1012.37C734.077 1000.29 759.116 987.074 783.299 972.905C793.019 986.873 801.967 999.382 810.045 1010.28C773.234 1031.86 734.515 1050.92 694.543 1066.76C683.521 1057.36 672.077 1046.12 660.321 1033.17ZM534.965 1071.35C574.928 1063.01 616.328 1050.55 658.242 1034C669.933 1046.91 681.334 1058.17 692.339 1067.63C687.891 1069.37 683.427 1071.08 678.949 1072.75C644.135 1085.7 609.824 1095.61 576.614 1102.44C562.637 1094 548.716 1083.59 534.965 1071.35ZM417.776 1083.89C426.751 1083.94 435.873 1083.72 445.128 1083.25C473.134 1081.82 502.362 1078.02 532.417 1071.87C545.992 1084.07 559.756 1094.51 573.601 1103.06C536.022 1110.6 499.884 1114.2 466.06 1113.81C449.396 1105.75 433.268 1095.72 417.776 1083.89ZM318.269 1070.9C347.513 1079.13 379.803 1083.43 414.308 1083.86C429.342 1095.55 444.989 1105.56 461.159 1113.72C428.535 1112.97 398.132 1108.46 370.752 1100.15C352.297 1092.07 334.784 1082.27 318.269 1070.9ZM999.252 797.253C1010.51 784.544 1021.17 771.669 1031.18 758.68C1046.51 738.786 1060.34 718.619 1072.51 698.37C1077.41 716.671 1080.46 734.57 1081.58 751.9C1062.8 783.4 1039.75 814.612 1013.14 844.753C1010.1 829.796 1005.45 813.91 999.252 797.253ZM997.676 799.027C1003.86 815.791 1008.46 831.743 1011.4 846.719C1008.01 850.524 1004.57 854.311 1001.08 858.08C976.722 884.337 949.697 909.663 920.502 933.519C915.167 920.731 908.548 906.645 900.737 891.416C936.467 862.279 969.002 831.196 997.676 799.027ZM1074.01 695.875C1093.37 663.282 1108.44 630.498 1118.58 598.319C1122.52 617.842 1124.54 637.402 1124.51 656.853C1115.32 687.245 1101.42 718.11 1083.45 748.729C1082.13 731.58 1078.95 713.909 1074.01 695.875ZM811.301 1011.97C774.66 1033.46 736.131 1052.47 696.357 1068.29C700.469 1071.73 704.52 1074.92 708.506 1077.83C714.936 1082.53 721.179 1086.52 727.213 1089.79C763.188 1075.55 798.356 1058.25 831.987 1038.51C829.441 1035.45 826.734 1032.09 823.872 1028.45C819.968 1023.48 815.771 1017.98 811.301 1011.97ZM679.679 1074.71C645.567 1087.4 611.911 1097.18 579.278 1104.03C592.855 1111.98 606.478 1118.06 620.041 1122.13C627.97 1120.51 635.967 1118.68 644.025 1116.67C671.144 1109.89 698.127 1101.17 724.681 1090.78C719.018 1087.63 713.207 1083.86 707.27 1079.52C702.966 1076.37 698.589 1072.92 694.146 1069.16C689.341 1071.06 684.518 1072.91 679.679 1074.71ZM576.234 1104.66C539.408 1112.19 503.91 1115.96 470.559 1115.93C486.522 1123.27 502.963 1128.81 519.795 1132.41C550 1132.76 582.24 1129.62 615.769 1123C602.586 1118.69 589.377 1112.54 576.234 1104.66ZM1081.79 755.617C1062.97 786.77 1040.02 817.594 1013.65 847.336C1014.35 851.007 1014.96 854.621 1015.46 858.175C1016.91 868.416 1017.52 878.17 1017.26 887.376C1041.04 860.384 1061.76 832.327 1078.71 803.837C1081.6 788.407 1082.6 772.283 1081.79 755.617ZM1002.61 859.503C978.056 885.978 950.796 911.505 921.339 935.539C924.028 942.082 926.372 948.275 928.359 954.098C930.087 959.162 931.548 963.953 932.73 968.455C939.275 963.105 945.706 957.669 952.017 952.154C974.738 932.296 995.881 911.419 1015.08 889.846C1015.53 880.049 1014.96 869.567 1013.39 858.468C1012.96 855.46 1012.46 852.407 1011.89 849.312C1008.84 852.724 1005.75 856.121 1002.61 859.503ZM926.378 954.774C924.464 949.167 922.215 943.209 919.642 936.919C886.629 963.714 850.884 988.63 813.116 1010.91C817.525 1016.83 821.665 1022.25 825.518 1027.16C828.455 1030.89 831.223 1034.32 833.815 1037.44C868.064 1017.22 900.699 994.484 930.945 969.91C929.739 965.207 928.215 960.156 926.378 954.774ZM1124.41 664.191C1114.92 693.449 1101.16 723.065 1083.71 752.411C1084.7 768.348 1084.06 783.819 1081.72 798.695C1097.25 771.828 1109.4 744.611 1117.57 717.57C1121.66 699.963 1123.91 682.131 1124.41 664.191ZM931.502 972.154C901.481 996.483 869.123 1019.01 835.177 1039.07C839.914 1044.69 844.028 1049.19 847.472 1052.51C847.859 1052.88 848.237 1053.24 848.605 1053.58C848.739 1053.7 848.872 1053.82 849.004 1053.94C849.069 1054 849.134 1054.06 849.199 1054.12C858.14 1048.85 866.975 1043.37 875.683 1037.69C895.986 1024.47 915.591 1010.2 934.232 995.073C934.314 993.691 934.332 992.23 934.285 990.69C934.122 985.364 933.186 979.167 931.502 972.154ZM729.653 1091.07C765.257 1076.88 800.056 1059.7 833.348 1040.14C838.213 1045.93 842.455 1050.58 846.02 1054.02C846.459 1054.44 846.89 1054.84 847.311 1055.23C817.757 1072.55 787.064 1087.61 755.991 1099.94C747.78 1098.83 738.973 1095.84 729.653 1091.07ZM624.372 1123.37C631.047 1121.95 637.77 1120.39 644.533 1118.7C672.299 1111.75 699.919 1102.79 727.082 1092.09C735.842 1096.74 744.236 1099.89 752.185 1101.43C722.423 1113.02 692.342 1122.07 662.606 1128.17C649.983 1128.46 637.209 1126.82 624.372 1123.37ZM1014.88 893.212C1014.03 904.945 1011.65 915.651 1007.67 925.205C986.288 949.257 962.29 972.117 936.395 993.311C936.411 992.438 936.405 991.542 936.377 990.626C936.202 984.88 935.159 978.21 933.301 970.692C940.124 965.129 946.825 959.473 953.394 953.731C975.478 934.43 996.085 914.159 1014.88 893.212ZM1017.13 890.687C1040.27 864.621 1060.59 837.532 1077.44 809.985C1074.32 823.963 1069.59 837.341 1063.18 850.003C1048.73 874.34 1031.34 898.045 1011.6 920.729C1014.74 911.581 1016.56 901.531 1017.13 890.687ZM928.516 1009.72C931.391 1007.16 933.218 1003.26 933.948 997.996C915.726 1012.69 896.603 1026.56 876.826 1039.45C868.288 1045.01 859.627 1050.39 850.863 1055.57C852.208 1056.69 853.394 1057.55 854.42 1058.15C855.329 1058.67 856.062 1058.97 856.631 1059.08C856.951 1059.14 857.194 1059.14 857.381 1059.11C882.305 1044.44 906.225 1027.84 928.516 1009.72Z" fill="#1845FF"/>
</svg>
