<svg width="205" height="419" viewBox="0 0 205 419" fill="none" xmlns="http://www.w3.org/2000/svg">
<g id="Vector">
<path id="CoolLogo" d="M98.5418 17.0878V29.7291L0 51.3788V17.0878C0 7.67049 7.65075 0 17.0556 0H81.4862C90.891 0 98.5418 7.67049 98.5418 17.0878Z" fill="#F6F6F6"/>
<path id="CoolLogo" d="M98.5418 37.7078V81.5942C98.5418 91.0115 90.891 98.6819 81.4862 98.6819H17.0556C7.65075 98.6819 0 91.0115 0 81.5942V59.3719L98.5418 37.7127V37.7078Z" fill="#F6F6F6"/>
<path id="CoolLogo" d="M50.4932 152.717C49.7855 153.425 49.3522 154.402 49.3522 155.476C49.3522 157.638 51.0998 159.385 53.2615 159.385H98.7188V204.843H0V106.124H98.7188V151.581H53.2615C52.1782 151.581 51.2009 152.015 50.4932 152.722V152.717Z" fill="#F6F6F6"/>
<path id="CoolLogo" d="M106.169 106.124V204.843H151.62V172.399C151.62 170.242 153.368 168.489 155.529 168.489C156.602 168.489 157.575 168.932 158.287 169.63C158.985 170.338 159.428 171.325 159.428 172.399V204.843H204.888V106.124H106.169ZM159.423 151.581C159.423 153.743 157.676 155.481 155.529 155.481C153.382 155.481 151.62 153.743 151.62 151.581V141.948C151.62 139.791 153.368 138.048 155.529 138.048C156.602 138.048 157.575 138.481 158.287 139.189C158.985 139.897 159.428 140.874 159.428 141.948V151.581H159.423Z" fill="#F6F6F6"/>
<path id="CoolLogo" d="M98.7188 246.665V213.224H0V311.943H98.7188V281.006L98.6947 281.03L92.9464 275.282C89.8989 272.225 88.2187 268.171 88.2187 263.852C88.2187 259.534 89.9037 255.48 92.9464 252.438L98.7188 246.665ZM62.2643 288.035C61.5566 288.743 60.5793 289.176 59.5057 289.176H39.2083C37.0466 289.176 35.3086 287.428 35.3086 285.267C35.3086 284.193 35.7419 283.216 36.4496 282.508C37.1574 281.81 38.1347 281.367 39.2083 281.367H59.5057C61.6529 281.367 63.4005 283.115 63.4005 285.267C63.4005 286.35 62.9576 287.327 62.2595 288.035H62.2643ZM62.2643 245.428C61.5566 246.136 60.5793 246.569 59.5057 246.569H39.2083C37.0466 246.569 35.3086 244.821 35.3086 242.66C35.3086 241.586 35.7419 240.613 36.4496 239.901C37.1574 239.203 38.1347 238.76 39.2083 238.76H59.5057C61.6529 238.76 63.4005 240.508 63.4005 242.66C63.4005 243.743 62.9576 244.72 62.2595 245.428H62.2643Z" fill="#F6F6F6"/>
<path id="CoolLogo" d="M204.888 213.224V311.943H106.169V213.224H151.622V276.119C151.622 278.281 153.37 280.019 155.531 280.019C157.693 280.019 159.426 278.281 159.426 276.119V213.224H204.888Z" fill="#F6F6F6"/>
<path id="CoolLogo" d="M98.714 351.536V319.394H0V418.112H45.4551V392.68C45.4551 390.519 47.2027 388.772 49.3546 388.772C50.4281 388.772 51.415 389.214 52.1227 389.912C52.8208 390.62 53.2637 391.607 53.2637 392.68V418.112H98.7188V385.869L98.6947 385.893L92.1283 379.317C89.2927 376.491 87.7329 372.727 87.7329 368.722C87.7329 364.717 89.2927 360.962 92.1283 358.126L98.714 351.536ZM62.2613 351.392C61.5536 352.099 60.5764 352.533 59.5028 352.533H39.2064C37.0448 352.533 35.3069 350.785 35.3069 348.624C35.3069 347.55 35.7402 346.578 36.4479 345.865C37.1556 345.167 38.1328 344.724 39.2064 344.724H59.5028C61.6499 344.724 63.3974 346.472 63.3974 348.624C63.3974 349.707 62.9546 350.684 62.2565 351.392H62.2613Z" fill="#F6F6F6"/>
<path id="CoolLogo" d="M156.674 350.39C155.977 351.098 155.534 352.075 155.534 353.149C155.534 355.31 157.281 357.058 159.428 357.058H204.888V379.226H159.428C158.354 379.226 157.382 379.668 156.67 380.366C155.972 381.074 155.529 382.061 155.529 383.134C155.529 385.281 157.276 387.034 159.423 387.034H204.883V418.112H106.169V319.394H204.883V349.254H159.423C158.35 349.254 157.377 349.687 156.665 350.395L156.674 350.39Z" fill="#F6F6F6"/>
</g>
</svg>
