<svg width="695" height="195" viewBox="0 0 695 195" fill="none" xmlns="http://www.w3.org/2000/svg">
<g id="Union">
<path id="CoolLogo" d="M642.305 103.565C651.072 67.6936 658.193 60.5623 694.012 51.7826C658.193 43.0028 651.072 35.8715 642.305 0C633.538 35.8715 626.417 43.0028 590.598 51.7826C626.417 60.5623 633.538 67.6936 642.305 103.565Z" fill="#F6F6F6"/>
<path id="CoolLogo" fill-rule="evenodd" clip-rule="evenodd" d="M334.085 150.904C329.471 146.413 325.803 140.348 326.163 132.171C317.087 141.855 301.849 153.681 292.738 153.681C282.146 153.681 271.16 143.827 271.16 135.656C271.16 115.068 295.296 76.7063 314.566 76.7063C325.283 76.7063 335.767 84.626 335.767 94.8571C335.767 104.067 314.566 117.613 302.185 120.426C298.746 121.261 295.642 121.162 293.647 121.098C293.374 121.089 293.122 121.081 292.892 121.076L292.715 121.073L292.59 121.071L292.487 121.071C289.803 127.593 288.14 133.864 288.14 138.72H288.157C288.157 142.304 289.946 144.346 292.237 144.346C299.859 144.346 314.147 136.583 328.593 123.136C337.469 106.194 369.252 87.9853 376.739 84.9127C372.91 79.9316 370.227 75.0758 369.976 70.2022C369.081 55.3662 385.56 40.0285 403.935 38.8818C415.689 38.1113 432.418 46.0489 433.813 56.5308C434.708 63.1784 417.46 81.8488 410.948 83.766C409.928 84.0168 409.928 82.9955 410.304 82.0996C412.469 77.2439 415.797 63.0529 415.027 55.2408C414.258 48.199 410.68 44.7588 403.147 44.7588C395.615 44.7588 385.273 52.4277 385.917 64.4505C386.337 71.2934 394.319 79.8204 402.792 88.8732C412.379 99.1155 422.596 110.032 423.204 119.942C424.474 139.885 406.6 154.972 387.331 160.096C371.622 164.181 347.111 163.303 334.085 150.886V150.904ZM379.047 87.5825C362.569 97.6881 345.59 116.86 346.735 136.05C347.629 149.99 358.74 155.366 371.372 155.366C386.061 155.366 406.475 146.926 405.33 128.131C404.617 116.212 394.913 105.431 385.767 95.2707L385.765 95.2683L385.764 95.2673C383.43 92.6741 381.132 90.1213 379.029 87.6004L379.047 87.5825ZM295.171 115.212C302.453 100.25 314.065 85.0381 320.327 85.0381V85.0202C322.366 85.0202 323.261 86.9553 322.492 90.2701C319.933 101.272 309.216 110.607 302.954 113.42C299.965 114.803 298.188 114.954 295.371 115.195L295.171 115.212Z" fill="#F6F6F6"/>
<path id="CoolLogo" fill-rule="evenodd" clip-rule="evenodd" d="M51.2895 42.5728C53.0788 40.1359 54.7426 38.8638 55.3688 38.8638C57.9274 38.8638 63.277 41.1752 66.8554 43.2178C87.4128 44.7587 106.056 49.0949 109.885 58.9497C113.714 68.5357 101.708 85.6652 71.4536 97.8135C61.112 102.042 48.9816 105.106 38.6401 106.772C30.2133 127.88 20.2475 155.742 20.2475 163.16C20.2475 163.93 20.498 165.203 20.7663 165.471C15.3989 165.346 4.93231 158.053 4.28827 154.864C4.28827 146.299 12.1962 124.69 18.9772 108.063C18.7411 107.753 18.3945 107.355 18.0002 106.903C16.2736 104.923 13.6364 101.899 15.3989 100.645H21.9116L25.7402 91.9544C32.6286 76.2225 39.9106 60.634 46.9418 49.1128C25.7402 49.8832 5.57636 52.8218 0.208924 54.8644C-1.06134 54.3448 3.78729 45.0096 5.95209 44.1316C11.9457 43.1103 30.7143 42.089 51.2717 42.5907L51.2895 42.5728ZM41.968 98.584C47.5861 97.4372 53.7228 95.6455 60.2355 92.8324C83.602 82.6013 92.7983 65.3464 88.4506 58.1792C84.8723 52.553 77.2145 50.2595 66.9985 49.3636C60.1103 61.2611 52.4348 74.5561 44.5266 92.8324L41.968 98.584Z" fill="#F6F6F6"/>
<path id="CoolLogo" fill-rule="evenodd" clip-rule="evenodd" d="M97.3964 138.72C97.3964 142.304 99.1855 144.346 101.476 144.346C109.425 144.346 124.624 135.902 139.692 121.374C143.465 111.375 149.477 100.231 155.866 91.6857C162.003 83.4972 169.017 77.7456 174.259 77.7456C182.435 77.7456 192.008 80.935 195.461 89.5176C197.5 85.5578 199.289 82.8701 200.703 81.2038C201.079 80.8275 201.973 80.057 202.742 80.057C207.341 79.9316 215.517 85.0382 215.768 86.5791C214.229 87.475 211.169 93.2266 209.38 96.9356C207.09 101.666 205.158 106.02 203.512 109.98C198.538 121.609 193.17 135.549 189.091 147.07L189.073 147.052C184.851 158.824 181.147 170.972 177.963 183.998C177.318 186.561 176.692 190.27 176.299 194.606C175.923 194.857 175.529 194.982 175.028 194.982C171.325 194.982 162.128 186.292 162.128 184.249C162.128 178.999 167.997 159.702 174.509 141.533C175.007 140.134 175.478 138.801 175.935 137.507L176.008 137.303C177.985 131.71 179.705 126.842 182.167 120.569C170.681 138.093 159.57 153.95 156.761 153.95C147.565 153.95 135.685 145.511 135.685 138.613C135.685 136.321 136.073 133.625 136.779 130.664C127.944 140.579 111.567 153.681 101.977 153.681C91.3849 153.681 80.3994 143.827 80.3994 135.656C80.3994 115.068 104.535 76.7063 123.805 76.7063C134.522 76.7063 145.006 84.626 145.006 94.8571C145.006 104.067 123.805 117.613 111.424 120.426C107.971 121.261 104.877 121.162 102.885 121.098C102.442 121.083 102.052 121.071 101.726 121.071C99.0424 127.593 97.3786 133.864 97.3786 138.72H97.3964ZM129.566 85.0381C123.304 85.0381 111.692 100.25 104.41 115.212L104.61 115.195C107.427 114.954 109.204 114.803 112.193 113.42C118.455 110.607 129.172 101.272 131.731 90.2701C132.5 86.9553 131.605 85.0202 129.566 85.0202V85.0381ZM191.614 94.6242C180.503 113.545 158.299 145.009 153.827 145.009C152.932 145.009 152.288 143.988 152.288 142.841C151.894 127.88 172.845 86.9554 184.207 86.9554C188.429 86.9554 190.343 90.7898 191.614 94.6242Z" fill="#F6F6F6"/>
<path id="CoolLogo" d="M227.362 81.0603C227.88 80.4153 228.632 80.2899 229.526 80.2899C234.124 80.2899 243.07 86.2923 242.301 86.5611C240.762 87.457 237.703 93.2086 235.914 96.9176C230.421 108.421 219.185 132.843 218.416 142.178C218.416 143.074 218.666 143.594 219.185 143.594C221.576 143.594 236.985 123.161 250.346 105.444C260.477 92.0104 269.43 80.1376 270.641 79.9136C274.47 79.2685 283.416 85.0202 283.541 86.1848C282.003 87.0807 278.818 92.7069 277.154 96.5413C271.286 109.586 268.083 117.774 265.399 125.317C260.801 138.236 256.328 151.531 257.867 155.366C252.123 154.344 242.283 147.822 242.283 144.364C242.283 140.53 251.086 117.004 254.539 108.564C242.033 127.88 224.141 153.574 222.495 153.699C213.299 153.95 201.168 145.636 201.419 138.738C201.794 133.237 216.483 95.2692 227.344 81.0603H227.362Z" fill="#F6F6F6"/>
<path id="CoolLogo" d="M451.42 77.5428L450.292 79.9136L450.31 79.9315C444.316 80.0569 438.698 80.4332 434.35 80.9528C431.541 82.4758 426.943 89.8938 427.963 91.3093C432.167 89.643 439.074 88.4962 446.857 87.6003C444.298 93.2265 442.008 98.6019 440.344 102.562C430.629 125.461 425.53 141.694 425.53 144.507C425.655 147.966 435.102 154.362 440.97 155.384C439.356 151.663 442.188 143.254 446.329 130.958L446.33 130.955L446.714 129.815C450.542 118.419 458.2 100.268 464.587 86.2027C471.274 85.8249 477.555 85.7218 482.004 85.6937C471.664 102.176 459.596 133.759 459.256 138.738C458.987 145.636 471.118 153.95 480.314 153.699C481.96 153.574 499.852 127.88 512.358 108.564C506.01 125.211 503.223 133.131 500.788 140.052C500.382 141.207 499.985 142.334 499.583 143.468C493.071 161.619 487.703 178.999 487.703 184.249C487.703 186.292 496.9 194.982 500.603 194.982C501.104 194.982 501.498 194.857 501.873 194.606C502.163 191.421 502.644 188.846 503.086 186.489L503.086 186.486C503.246 185.634 503.4 184.811 503.538 183.998C506.722 170.972 510.426 158.824 514.648 147.052H514.684C522.341 124.923 537.156 89.3742 541.361 86.1848C541.235 85.0202 532.289 79.2685 528.46 79.9136C527.247 80.1303 518.267 92.0394 508.117 105.5C494.767 123.205 479.393 143.594 477.004 143.594C476.485 143.594 476.235 143.074 476.235 142.178C477.004 132.843 488.24 108.421 493.733 96.9176C495.522 93.2086 498.581 87.457 500.12 86.5611C500.98 86.1821 488.857 78.25 485.536 80.713C480.104 80.421 473.833 80.1557 467.396 80.0569C467.752 79.2883 468.098 78.5415 468.431 77.8196L468.514 77.6412L468.521 77.6255C470.424 73.5068 471.947 70.2124 473.014 68.2849L473.188 67.9482C475.102 64.2376 477.909 58.7976 479.402 57.9284C479.133 56.7637 471.35 51.6571 466.752 51.7825C466.001 51.7825 464.963 52.553 464.587 53.0547C462.673 55.1153 459.363 61.3686 456.679 66.7439C455.277 69.4322 453.429 73.3171 451.426 77.5294L451.42 77.5428Z" fill="#F6F6F6"/>
<path id="CoolLogo" d="M541.718 102.544C532.003 125.443 526.904 141.676 526.904 144.49H526.922C527.047 147.948 536.494 154.344 542.362 155.366C540.748 151.646 543.579 143.237 547.72 130.942L548.105 129.797C554.099 111.754 569.933 76.975 574.406 68.2849L574.578 67.9517C576.492 64.241 579.3 58.7979 580.793 57.9284C580.525 56.7637 572.742 51.6571 568.144 51.7825C567.393 51.7825 566.355 52.553 565.979 53.0547C564.065 55.1153 560.755 61.3686 558.071 66.7439C553.974 74.7891 545.672 92.9578 541.718 102.544Z" fill="#F6F6F6"/>
<path id="CoolLogo" fill-rule="evenodd" clip-rule="evenodd" d="M573.905 138.72C573.905 142.304 575.694 144.346 577.985 144.346C586.286 144.346 602.496 135.136 618.205 119.405C619.618 119.53 618.849 122.863 618.456 123.759C613.607 132.718 590.616 153.681 578.486 153.681C567.894 153.681 556.908 143.827 556.908 135.656C556.908 115.068 581.044 76.7063 600.313 76.7063C611.03 76.7063 621.515 84.626 621.515 94.8571C621.515 104.067 600.313 117.613 587.932 120.426C584.494 121.261 581.39 121.162 579.395 121.098C578.95 121.083 578.561 121.071 578.235 121.071C575.551 127.593 573.887 133.864 573.887 138.72H573.905ZM606.074 85.0381C599.812 85.0381 588.201 100.25 580.919 115.212L581.119 115.195C583.936 114.954 585.712 114.803 588.702 113.42C594.964 110.607 605.681 101.272 608.239 90.2701C609.009 86.9553 608.114 85.0202 606.074 85.0202V85.0381Z" fill="#F6F6F6"/>
</g>
</svg>
