<svg width="43" height="43" viewBox="0 0 43 43" fill="none" xmlns="http://www.w3.org/2000/svg">
<path d="M43 21.5C43 22.7808 41.9643 23.8118 40.6882 23.8118H23.8118V40.6882C23.8118 41.9689 22.7761 43 21.5 43C20.2239 43 19.1882 41.9689 19.1882 40.6882V23.8118H2.31183C1.0357 23.8118 0 22.7808 0 21.5C0 20.2192 1.0357 19.1882 2.31183 19.1882H19.1882V2.31183C19.1882 1.0357 20.2239 0 21.5 0C22.7761 0 23.8118 1.0357 23.8118 2.31183V19.1882H40.6882C41.9643 19.1882 43 20.2239 43 21.5Z" fill=var(--blanco)/>
</svg>
