<svg width="94" height="94" viewBox="0 0 94 94" fill="none" xmlns="http://www.w3.org/2000/svg">
<g id="Group 6">
<circle id="Ellipse 2" cx="47" cy="47" r="47" fill="#282828"/>
<path id="Vector" d="M68 46.5C68 47.7808 66.9643 48.8118 65.6882 48.8118H48.8118V65.6882C48.8118 66.9689 47.7761 68 46.5 68C45.2239 68 44.1882 66.9689 44.1882 65.6882V48.8118H27.3118C26.0357 48.8118 25 47.7808 25 46.5C25 45.2192 26.0357 44.1882 27.3118 44.1882H44.1882V27.3118C44.1882 26.0357 45.2239 25 46.5 25C47.7761 25 48.8118 26.0357 48.8118 27.3118V44.1882H65.6882C66.9643 44.1882 68 45.2239 68 46.5Z" fill="#F6F6F6"/>
</g>
</svg>
