<svg width="623" height="125" viewBox="0 0 623 125" fill="none" xmlns="http://www.w3.org/2000/svg">
<g id="Vector">
<path id="CoolLogo" d="M596.56 102.762C623.065 82.3568 630.168 47.062 612.425 23.9291C594.682 0.796265 558.812 -1.41469 532.308 18.9908C505.803 39.3963 498.7 74.6911 516.443 97.824C534.185 120.957 570.055 123.168 596.56 102.762Z" fill="#E7BA00"/>
<path id="CoolLogo" d="M127.161 100.671C116.049 107.323 107.061 107.775 95.649 101.395C93.0293 100.158 90.5451 98.6044 88.1362 96.93C91.1774 93.3702 93.9627 89.3277 96.4469 84.8025C102.65 73.4895 105.751 61.3469 105.751 48.3294C105.751 38.6606 103.869 30.7264 100.166 24.4666C96.4469 18.2218 91.3581 13.6061 84.9293 10.6496C78.5005 7.66299 70.807 6.16968 61.9392 6.16968C49.0816 6.16968 37.9856 9.24681 28.5607 15.3558C19.1358 21.495 12.0295 29.761 7.21169 40.1992C2.42397 50.6222 0 61.724 0 73.5348C0 85.3455 2.77025 94.8485 8.31075 102.36C13.8663 109.842 21.9362 114.533 32.5053 116.388L35.667 116.901C37.9404 117.143 40.2289 117.278 42.4571 117.278C53.2069 117.278 63.3544 114.684 72.8847 109.495C76.1819 107.715 79.2533 105.558 82.144 103.024C88.5577 108.997 95.4683 114.307 104.637 115.363C114.243 116.494 123.517 110.807 127.989 102.752C127.672 102.074 127.401 101.38 127.176 100.656L127.161 100.671ZM71.2286 103.522C64.7245 108.288 56.7902 110.687 47.3954 110.687C39.9278 110.687 33.5291 109.148 28.2746 106.086C23.0051 103.054 19.2111 98.71 16.8925 93.0836C14.5739 87.4573 13.4146 80.6695 13.4146 72.7202C13.4146 61.2112 15.3719 50.4412 19.2864 40.3651C23.2159 30.3191 28.4101 23.0939 34.8841 18.7346C41.3882 14.3452 49.0214 12.1731 57.8139 12.1731C63.1587 12.1731 68.0669 13.0027 72.5384 14.7072C77.01 16.3966 80.7589 19.0062 83.8001 22.4906C86.8564 25.9448 89.0094 29.8817 90.3042 34.2561C91.614 38.6455 92.2614 43.7137 92.2614 49.4607C92.2614 59.8083 90.3644 70.2012 86.6005 80.6544C85.0798 84.8629 83.3484 88.6489 81.3912 91.9222C77.1605 88.7093 72.9449 85.4662 68.2476 83.0075C53.1617 74.9678 46.3565 89.026 45.3629 102.028C45.2725 102.617 46.1909 102.798 46.3264 102.209C50.6023 87.7741 56.5794 78.8896 70.2048 91.9372C72.5083 93.8378 74.7516 95.9496 76.9799 98.0915C75.1882 100.188 73.2762 101.983 71.2286 103.507V103.522Z" fill="#F6F6F6"/>
<path id="CoolLogo" d="M128.275 100.007C127.913 100.233 127.537 100.46 127.176 100.656C127.401 101.38 127.672 102.089 127.989 102.752C128.38 102.074 128.711 101.38 129.027 100.671C129.253 100.218 128.681 99.7204 128.275 99.9919V100.007Z" fill="#F6F6F6"/>
<path id="CoolLogo" d="M221.018 8.55301L208.567 82.0875C206.218 96.8999 205.044 106.539 205.044 106.539L203.734 114.216C199.895 114.216 194.866 114.397 191.554 114.805L191.042 114.216L194.791 95.663C190.184 101.139 184.312 106.026 177.16 110.37C169.979 114.729 162.135 116.916 153.613 116.916C148.103 116.916 143.18 115.876 138.768 113.764C134.387 111.667 131.165 108.786 129.103 105.121C128.666 104.351 128.29 103.582 127.973 102.768C128.365 102.089 128.696 101.395 129.012 100.686C129.238 100.234 128.666 99.7357 128.26 100.007C127.898 100.234 127.522 100.46 127.16 100.656C126.408 98.2877 126.031 95.7837 126.031 93.1893C126.031 90.2932 126.393 86.4467 127.115 81.6199C127.838 76.8232 129.057 69.7186 130.744 60.3363L139.807 8.53793H151.701L149.006 24.6024C148.013 29.565 146.778 36.2472 145.288 44.7093L141.373 66.4755C140.274 72.5695 139.506 77.2455 139.054 80.5036C138.603 83.7316 138.332 86.0546 138.241 87.397C138.121 88.7395 138.076 90.0066 138.076 91.1529C138.076 96.8999 140.229 101.199 144.505 104.05C148.796 106.901 153.809 108.319 159.5 108.319C165.191 108.319 170.897 106.629 177.431 103.205C183.936 99.8111 190.214 94.4714 196.266 87.1557L204.727 35.1612L208.476 14.3453L196.612 12.1883C196.101 12.0827 195.784 11.5547 195.935 11.057L196.582 9.11112C196.718 8.7491 197.034 8.49268 197.41 8.49268H220.958L221.018 8.55301Z" fill="#F6F6F6"/>
<path id="CoolLogo" d="M382.611 8.20595C374.119 8.61322 352.274 8.79422 326.001 8.79422C325.188 8.79422 324.39 8.79422 323.607 8.76406L321.078 23.6972L321.033 23.9687C320.491 27.7548 319.693 32.8381 318.669 39.1734L313.023 71.3475L312.677 73.3084L305.736 114.382C309.169 114.277 313.129 114.216 317.615 114.216L369.738 114.805L370.702 114.126C370.837 111.727 371.319 107.715 372.072 102.089C372.84 96.4624 373.577 92.5405 374.285 90.3383L373.773 89.7198H370.626L369.949 90.3383C369.377 91.9824 368.775 94.1696 368.067 96.8847C367.073 100.731 366.29 103.175 365.703 104.185C365.131 105.211 364.378 105.935 363.415 106.357C362.466 106.795 359.786 107.172 355.375 107.519C350.949 107.881 345.574 108.062 339.235 108.062C332.897 108.062 326.046 107.745 319.151 107.157C319.512 103.899 320.34 98.3328 321.71 90.4137L326.272 63.0363C330.759 62.9458 334.222 62.8703 336.616 62.8703C342.803 62.8703 351.732 63.1418 363.355 63.6999L366.2 56.5803L365.673 55.8261C355.827 56.4596 347.516 56.7915 340.726 56.7915C336.841 56.7915 332.385 56.701 327.401 56.5652C330.533 37.6952 333.108 23.9385 335.125 15.2954C338.844 14.8429 343.707 14.6166 349.639 14.6166C353.975 14.6166 358.236 14.7977 362.406 15.1898C366.576 15.5519 373.502 16.0044 374.225 16.5021C374.947 16.9999 375.399 17.6636 375.58 18.4932C375.76 19.3078 374.978 23.5162 375.474 31.1487L376.062 31.737H378.681L379.299 31.1487L381.843 18.086C382.581 13.0177 383.032 9.92552 383.198 8.76406L382.581 8.17578L382.611 8.20595Z" fill="#F6F6F6"/>
<path id="CoolLogo" d="M301.521 8.20595C293.029 8.61322 271.183 8.79422 244.911 8.79422C244.098 8.79422 243.3 8.79422 242.517 8.76406L239.988 23.6972L239.943 23.9687C239.401 27.7548 238.603 32.8381 237.579 39.1734L231.933 71.3475L231.587 73.3084L224.646 114.382C228.079 114.277 232.039 114.216 236.525 114.216L288.648 114.805L289.612 114.126C289.747 111.727 290.229 107.715 290.982 102.089C291.75 96.4624 292.487 92.5405 293.195 90.3383L292.683 89.7198H289.536L288.859 90.3383C288.287 91.9824 287.685 94.1696 286.977 96.8847C285.983 100.731 285.2 103.175 284.613 104.185C284.041 105.211 283.288 105.935 282.325 106.357C281.376 106.795 278.696 107.172 274.285 107.519C269.859 107.881 264.484 108.062 258.145 108.062C251.807 108.062 244.956 107.745 238.061 107.157C238.422 103.899 239.25 98.3328 240.62 90.4137L245.182 63.0363C249.669 62.9458 253.132 62.8703 255.525 62.8703C261.713 62.8703 270.641 63.1418 282.264 63.6999L285.11 56.5803L284.583 55.8261C274.737 56.4596 266.426 56.7915 259.636 56.7915C255.751 56.7915 251.295 56.701 246.311 56.5652C249.443 37.6952 252.018 23.9385 254.035 15.2954C257.754 14.8429 262.617 14.6166 268.549 14.6166C272.885 14.6166 277.146 14.7977 281.316 15.1898C285.486 15.5519 292.412 16.0044 293.135 16.5021C293.857 16.9999 294.309 17.6636 294.49 18.4932C294.67 19.3078 293.887 23.5162 294.384 31.1487L294.971 31.737H297.591L298.208 31.1487L300.753 18.086C301.491 13.0177 301.942 9.92552 302.108 8.76406L301.491 8.17578L301.521 8.20595Z" fill="#F6F6F6"/>
<path id="CoolLogo" d="M129.027 100.686C128.711 101.38 128.38 102.089 127.989 102.767C127.672 102.089 127.401 101.395 127.176 100.671C127.537 100.46 127.928 100.233 128.275 100.022C128.681 99.7507 129.238 100.248 129.027 100.701V100.686Z" fill="#F6F6F6"/>
<path id="CoolLogo" d="M488.919 6.35059C488.919 6.35059 485.441 20.6804 483.032 32.9889L477.627 60.3664L472.674 88.9656C471.304 96.7791 470.1 105.256 468.985 114.397H461.352C460.855 113.356 459.531 110.837 457.362 106.916L452.665 98.4987L409.651 24.376L409.41 25.9447L398.073 93.6416L396.854 102.722C396.673 104.216 396.552 105.166 396.552 105.573C396.552 106.976 397.004 107.926 397.922 108.469C398.841 108.982 401.175 109.404 404.863 109.691L408.552 110.008L409.139 110.596L408.838 113.824L408.251 114.412H385.562C385.562 114.412 389.04 100.082 391.449 87.774L396.854 60.3965L401.807 31.7973C403.177 23.9838 404.381 15.5066 405.48 6.36567H412.602C413.114 7.40646 414.725 10.3931 417.42 15.2803L422.9 25.1151L464.845 96.3869L476.438 27.1363L477.658 18.0558C477.838 16.5624 477.959 15.6122 477.959 15.2049C477.959 13.8021 477.507 12.8518 476.589 12.3088C475.67 11.7959 473.337 11.3886 469.648 11.087L465.959 10.7702L465.372 10.1819L465.673 6.95395L466.26 6.36567H488.949L488.919 6.35059Z" fill="#F6F6F6"/>
<path id="CoolLogo" d="M537.429 124.428C515.056 127.158 482.656 85.7376 496.643 65.4044C498.976 61.7993 503.659 59.7479 507.754 60.5322C507.95 60.5624 508.1 60.7434 508.07 60.9395C508.055 61.0904 507.95 61.1959 507.814 61.2412C503.328 62.9758 501.175 66.0228 500.392 70.0502C499.037 86.1298 506.896 103.009 518.609 114.201C523.743 119.058 530.052 123.508 537.369 123.719C537.79 123.674 537.865 124.398 537.429 124.428Z" fill="#F6F6F6"/>
<path id="CoolLogo" d="M604.773 117.188C567.781 119.631 527.146 65.676 526.378 31.0884C525.896 19.6246 530.187 5.34002 542.232 1.17683C543.963 0.739399 545.74 0.211459 547.531 0.211459L550.166 0.151123C550.603 0.151123 550.648 0.784651 550.226 0.860071C549.413 1.10141 547.411 1.78019 546.628 1.99137C545.905 2.3383 544.114 3.24334 543.361 3.62044L541.449 5.03834C533.891 11.1172 532.656 21.6156 533.484 30.7415C536.796 63.1268 556.79 95.3462 585.487 111.441C591.419 114.488 597.968 116.66 604.728 116.479C605.164 116.434 605.21 117.173 604.773 117.188Z" fill="#F6F6F6"/>
<path id="CoolLogo" d="M622.177 64.0621C599.805 66.7923 567.405 25.3716 581.391 5.0384C583.725 1.43333 588.407 -0.618092 592.503 0.166276C592.698 0.196444 592.849 0.377452 592.819 0.573543C592.804 0.724383 592.698 0.829971 592.563 0.875223C588.076 2.60988 585.923 5.65685 585.14 9.68427C583.785 25.7638 591.644 42.6428 603.358 53.8351C608.492 58.6922 614.8 63.1419 622.117 63.3531C622.539 63.3079 622.614 64.0319 622.177 64.0621Z" fill="#F6F6F6"/>
</g>
</svg>
