<svg xmlns="http://www.w3.org/2000/svg" viewBox="0 0 672.9 673.06"><defs><style>.cls-1{fill:#fff;}</style></defs><g id="Capa_2" data-name="Capa 2"><g id="Content"><path class="cls-1" d="M672.9,336.85c0,183.84-147.56,333.23-330.71,336.16-1.82,0-180.66,0-180.66,0A161.53,161.53,0,0,1,0,511.54V.64H161.53V51C252.88-5.47,370.34-19.83,479.38,32.34L349.11,162.61C247.76,155,160.19,237.35,162.05,339.34c12.56,229,338.61,228,349.31-1L392.67,454.47,278.46,340.25,492.34,126.37c32.32-32.38,86.23-28.52,113.11,8.45A334.61,334.61,0,0,1,672.9,336.85Z"/></g></g></svg>