<?xml version="1.0" encoding="UTF-8"?><svg id="Capa_2" xmlns="http://www.w3.org/2000/svg" viewBox="0 0 945.23 228.05"><defs><style>.cls-1{fill:#fff;}</style></defs><g id="Content"><g><g><g><path class="cls-1" d="M271.23,86.83V0h-20.53V104.88h58.42v-18.05h-37.88Z"/><path class="cls-1" d="M383.35,0V60.61c0,8.69-1.51,14.94-4.51,18.74-3.01,3.8-7.95,5.7-14.81,5.7s-11.75-1.9-14.78-5.7c-3.03-3.8-4.55-10.05-4.55-18.74V0h-20.53V66.35c0,12.72,3.36,22.32,10.08,28.81,6.71,6.48,16.64,9.72,29.78,9.72s23.12-3.24,29.84-9.72c6.72-6.49,10.07-16.09,10.07-28.81V0h-20.59Z"/><path class="cls-1" d="M430.89,0V104.88h20.53V0h-20.53Z"/><path class="cls-1" d="M540.82,62.76c-1.5-3.15-3.67-5.92-6.51-8.31-2.84-2.38-6.25-4.55-10.24-6.51-3.98-1.95-8.43-3.92-13.35-5.92-2.29-.9-4.39-1.74-6.29-2.54s-3.54-1.63-4.89-2.53c-1.36-.9-2.39-1.95-3.12-3.15-.72-1.2-1.08-2.64-1.08-4.31,0-2.08,.55-3.96,1.65-5.65,1.1-1.69,2.7-3.04,4.8-4.06,2.1-1.02,4.65-1.53,7.66-1.53,2.67,0,5.31,.36,7.92,1.1,2.6,.73,5.06,1.71,7.37,2.93,2.31,1.22,4.38,2.57,6.19,4.03l8.58-15.51c-2.29-1.87-5.09-3.6-8.42-5.19-3.33-1.59-6.9-2.87-10.71-3.85-3.81-.98-7.63-1.47-11.44-1.47-5.04,0-9.63,.81-13.76,2.44-4.13,1.63-7.69,3.83-10.68,6.59-2.99,2.77-5.29,5.92-6.9,9.47-1.61,3.54-2.41,7.25-2.41,11.12,0,3.26,.58,6.2,1.75,8.82,1.16,2.63,2.74,4.98,4.73,7.06,1.99,2.08,4.27,3.9,6.83,5.47,2.56,1.57,5.26,2.96,8.1,4.19,3.82,1.59,7.21,3.04,10.21,4.37,2.99,1.33,5.5,2.67,7.56,4.03,2.05,1.36,3.62,2.9,4.7,4.61,1.08,1.71,1.62,3.75,1.62,6.11,0,2.65-.67,4.87-2,6.66-1.33,1.79-3.14,3.13-5.4,4-2.27,.88-4.88,1.32-7.85,1.32-3.18,0-6.18-.43-9-1.29-2.82-.85-5.43-1.95-7.85-3.29-2.41-1.35-4.6-2.75-6.55-4.22-1.95-1.47-3.62-2.79-5.02-3.97l-10.55,16.37c1.36,1.27,3.2,2.73,5.53,4.4,2.33,1.67,5.12,3.3,8.36,4.89,3.24,1.59,6.92,2.89,11.03,3.91,4.11,1.02,8.58,1.53,13.41,1.53,7.67,0,14.36-1.21,20.08-3.63,5.72-2.42,10.18-5.93,13.38-10.54,3.2-4.6,4.8-10.11,4.8-16.55,0-4.44-.75-8.24-2.26-11.4Z"/><path class="cls-1" d="M294.24,171.01v15.4h27.52v1.47c0,3.19-.72,6.11-2.16,8.77-1.44,2.66-3.39,4.96-5.85,6.93-2.46,1.96-5.26,3.49-8.42,4.57-3.16,1.09-6.46,1.62-9.89,1.62-4.19,0-8.12-.84-11.79-2.51-3.66-1.68-6.87-4.07-9.6-7.18-2.73-3.1-4.86-6.81-6.39-11.1-1.52-4.29-2.29-9.07-2.29-14.35,0-4.82,.67-9.3,2-13.43,1.34-4.13,3.34-7.72,6.01-10.76,2.67-3.05,5.91-5.42,9.72-7.12,3.81-1.7,8.22-2.55,13.22-2.55s10.24,.91,15.48,2.73c5.23,1.82,9.69,4.39,13.38,7.7l9.66-15.39c-3.43-2.74-7.29-5.06-11.57-6.96-4.28-1.9-8.74-3.34-13.38-4.32-4.64-.98-9.27-1.47-13.89-1.47-8.05,0-15.34,1.39-21.86,4.17-6.53,2.78-12.1,6.58-16.72,11.41-4.62,4.82-8.16,10.39-10.62,16.71-2.45,6.31-3.68,13.03-3.68,20.15s1.3,14.35,3.91,20.73c2.6,6.38,6.25,11.95,10.93,16.71,4.68,4.77,10.13,8.47,16.37,11.13,6.23,2.65,12.94,3.99,20.15,3.99,6.19,0,12.16-1,17.93-3.01,5.76-2,10.92-4.85,15.47-8.56,4.55-3.7,8.17-8.11,10.84-13.21,2.67-5.11,4-10.75,4-16.93v-15.34h-48.5Z"/><path class="cls-1" d="M421.87,141.1v-18.05h-58.28v104.88h58.28v-18.05h-37.75v-25.49h36.23v-18.05h-36.23v-25.23h37.75Z"/><path class="cls-1" d="M591.07,123.05h-19.07l-42.08,104.88h22.06l9.02-23.9h41.13l8.96,23.9h22.12l-42.14-104.88Zm-23.13,62.92l13.6-35.09,13.6,35.09h-27.2Z"/><path class="cls-1" d="M696.32,186.04c4.92-1.4,9.13-3.55,12.62-6.45,3.49-2.91,6.17-6.46,8.04-10.65,1.86-4.2,2.8-8.9,2.8-14.11,0-6.7-1.44-12.41-4.32-17.16-2.88-4.74-6.97-8.37-12.27-10.87-5.3-2.5-11.52-3.75-18.69-3.75h-35.66v104.88h20.53v-39.53h4.83l30.32,39.53h26.12l-34.32-41.89Zm-7.31-16.65c-3.01,1.27-6.64,1.91-10.87,1.91h-8.77v-31.78h8.77c6.45,0,11.4,1.38,14.87,4.13,3.47,2.76,5.22,6.66,5.22,11.7,0,3.35-.79,6.21-2.35,8.58-1.57,2.37-3.86,4.19-6.87,5.47Z"/><path class="cls-1" d="M822.33,154.92c-2.69-6.37-6.43-11.95-11.22-16.71-4.79-4.77-10.39-8.49-16.81-11.16-6.42-2.67-13.36-4-20.82-4h-28.73v104.88h28.73c7.46,0,14.4-1.32,20.82-3.97,6.42-2.65,12.04-6.36,16.84-11.12,4.81-4.77,8.55-10.32,11.22-16.66,2.67-6.33,4.01-13.21,4.01-20.62s-1.35-14.25-4.04-20.63Zm-20.53,34.1c-1.63,4.15-3.94,7.75-6.93,10.81-2.99,3.05-6.5,5.42-10.52,7.12-4.03,1.7-8.41,2.54-13.16,2.54h-5.91v-68.01h5.91c4.79,0,9.18,.86,13.19,2.58,4,1.72,7.5,4.1,10.49,7.15,2.99,3.05,5.3,6.64,6.93,10.77,1.63,4.13,2.45,8.63,2.45,13.51s-.82,9.39-2.45,13.54Z"/><path class="cls-1" d="M941.13,155.09c-2.74-6.36-6.52-11.94-11.35-16.74-4.83-4.81-10.45-8.56-16.84-11.26-6.4-2.7-13.27-4.05-20.6-4.05s-14.19,1.35-20.59,4.05c-6.4,2.7-12.02,6.45-16.85,11.26-4.83,4.8-8.61,10.39-11.34,16.74-2.73,6.36-4.1,13.17-4.1,20.45s1.37,14.1,4.1,20.45c2.74,6.36,6.52,11.94,11.34,16.74,4.83,4.81,10.45,8.56,16.85,11.26,6.4,2.7,13.26,4.05,20.59,4.05s14.2-1.35,20.6-4.05c6.39-2.7,12.01-6.45,16.84-11.26,4.83-4.81,8.61-10.39,11.35-16.74,2.73-6.36,4.1-13.18,4.1-20.45s-1.37-14.1-4.1-20.45Zm-24,16.68l-6.31,20.7c-3.63,11.91-16.23,18.62-28.14,14.99-9.72-2.97-15.98-11.9-15.98-21.56,0-2.18,.32-4.39,.99-6.58l6.31-20.69c3.63-11.91,16.23-18.62,28.14-14.99,11.91,3.63,18.62,16.23,14.99,28.14Z"/></g><path class="cls-1" d="M503.28,182.34c1.39-.81,2.7-1.73,3.92-2.75,3.5-2.91,6.18-6.46,8.04-10.65,1.87-4.19,2.79-8.89,2.79-14.1,0-6.7-1.44-12.42-4.32-17.17-2.88-4.74-6.97-8.37-12.27-10.86-5.29-2.51-11.52-3.75-18.68-3.75h-35.66v104.87h20.53v-39.53h4.84c4.46,.04,8.69-.18,12.7-.65l17.98,40.18h20.53l-20.4-45.59Zm-35.65-11.05v-31.78h8.77c6.45,0,11.41,1.38,14.87,4.13,3.48,2.75,5.21,6.65,5.21,11.69,0,3.35-.78,6.2-2.35,8.58-1.57,2.37-3.85,4.2-6.87,5.47-3,1.27-6.63,1.91-10.87,1.91h-8.77Z"/></g><g><path class="cls-1" d="M227.99,114.14c0,62.29-50,112.91-112.05,113.9-.62,.01-1.24,.02-1.86,.02H54.73c-30.22,0-54.73-24.5-54.73-54.73V.22H54.73V17.28C85.68-1.85,125.48-6.72,162.43,10.96l-44.14,44.14c-34.34-2.58-64.01,25.32-63.38,59.88,4.26,77.58,114.73,77.26,118.36-.35l-40.22,39.36-38.7-38.7c20.54-20.54,72.47-72.47,72.47-72.47,10.95-10.97,29.22-9.66,38.33,2.86,14.35,19.06,22.85,42.76,22.85,68.45Z"/><path class="cls-1" d="M115.94,228.04v.02h-1.86c.63,0,1.25,0,1.86-.02Z"/></g></g></g></svg>