<svg width="788" height="225" viewBox="0 0 788 225" fill="none" xmlns="http://www.w3.org/2000/svg">
<path id="CoolLogo" d="M262.521 8.24249L267.641 13.3625C268.361 14.0725 269.521 14.0725 270.231 13.3625L275.351 8.24249C276.061 7.52248 276.061 6.36248 275.351 5.65249L270.231 0.532494C269.511 -0.177498 268.351 -0.177498 267.641 0.532494L262.521 5.65249C261.811 6.37249 261.811 7.53249 262.521 8.24249Z" fill="#F6F6F6"/>
<path id="CoolLogo" d="M246.091 24.8824L236.721 15.5124C235.411 14.2024 235.411 12.0924 236.721 10.7824L246.091 1.41244C247.401 0.102409 249.511 0.102409 250.821 1.41244L260.191 10.7824C261.501 12.0924 261.501 14.2024 260.191 15.5124L250.821 24.8824C249.511 26.1924 247.401 26.1924 246.091 24.8824Z" fill="#F6F6F6"/>
<path id="CoolLogo" d="M559.701 53.8825C561.731 51.1725 564.921 49.5725 568.301 49.5725H595.151C599.791 49.5725 602.511 54.7925 599.841 58.5925L535.471 155.182L535.171 155.542C526.217 166.281 523.297 169.783 513.901 169.783H502.521C493.125 169.783 490.199 166.273 481.223 155.509L480.951 155.182L416.581 58.5925C413.911 54.7925 416.631 49.5725 421.271 49.5725H448.121C451.511 49.5725 454.701 51.1725 456.731 53.8825L508.211 127.872L559.691 53.8825H559.701Z" fill="#F6F6F6"/>
<path id="CoolLogo" fill-rule="evenodd" clip-rule="evenodd" d="M656.801 3.46243C733.571 9.46243 778.001 26.5824 781.921 51.6524L781.901 51.6424C782.981 58.5682 780.924 65.8612 775.884 73.402C783.61 83.6433 787.561 96.295 787.561 109.532C787.561 143.252 764.831 169.793 723.861 169.793C723.611 169.793 723.391 169.793 723.141 169.763V169.793H656.721V169.763C656.361 169.793 656.001 169.793 655.641 169.793C639.078 169.793 625.496 165.455 615.192 158.059C554.14 177.456 481.984 194.012 405.671 205.932C328.471 217.992 253.861 224.232 189.291 224.232C166.651 224.232 145.251 223.463 125.401 221.912C48.6309 215.912 4.20096 198.792 0.280796 173.722C-1.53048 162.12 5.44461 149.496 20.521 136.394V55.7025C20.521 52.3225 23.1509 49.5825 26.3811 49.5825H166.191C179.449 49.5825 189.78 52.7872 197.006 58.2687C205.845 55.7374 214.873 53.2651 224.071 50.8562C225.049 50.0521 226.283 49.5725 227.621 49.5725H229.012C274.823 37.7662 324.726 27.5359 376.541 19.4424C480.801 3.16244 580.331 -2.51759 656.801 3.46243ZM222.576 52.6974C222.127 53.5537 221.871 54.5369 221.871 55.5825V163.793C221.871 167.113 224.441 169.802 227.621 169.802H401.631C404.641 169.802 407.081 167.243 407.081 164.093L407.041 148.353C407.041 145.213 404.601 142.672 401.591 142.672H272.141V121.502H386.831C389.841 121.502 392.281 118.953 392.281 115.812V100.013C392.281 96.8725 389.841 94.3225 386.831 94.3225H272.141V76.7225H401.781C404.791 76.7225 407.231 74.1725 407.231 71.0325V55.2625C407.231 52.1225 404.791 49.5725 401.781 49.5725H234.668C278.333 38.5062 326.251 28.6876 376.741 20.8024C453.871 8.75243 528.401 2.52242 592.901 2.52242C615.501 2.52242 636.871 3.29241 656.681 4.83242C732.751 10.7824 776.741 27.4824 780.541 51.8624C781.566 58.4162 779.635 65.2696 775.036 72.3065C764.339 58.8428 746.9 49.8092 723.141 49.5725H656.721C614.341 49.8225 591.941 78.0225 591.941 109.532C591.941 129.005 599.521 146.082 613.815 157.038C554.492 175.784 483.003 192.455 405.451 204.573C301.291 220.843 201.871 226.513 125.511 220.542C49.441 214.583 5.45096 197.883 1.6409 173.503C-0.0929831 162.389 6.65946 150.415 20.521 138.14V163.683C20.521 167.063 23.1411 169.803 26.3811 169.803H64.9309C68.1609 169.803 70.7911 167.063 70.7911 163.683V125.343H147.521C162.401 125.343 165.921 129.663 165.921 140.803V144.803C165.921 153.833 166.131 160.073 166.941 164.773C167.451 167.693 169.871 169.803 172.711 169.803H200.941C204.391 169.803 207.101 166.713 206.761 163.123C206.311 158.334 206.311 152.951 206.311 148.26V141.523L206.321 141.513C206.321 120.773 195.161 115.353 189.531 112.833C200.661 108.833 209.351 99.6925 209.351 84.1525C209.351 74.1173 205.611 65.4747 198.346 59.3409C206.251 57.0858 214.332 54.8697 222.576 52.6974ZM70.7911 100.703H153.081C163.901 100.703 169.481 96.5925 169.481 87.7425C169.481 79.5625 164.201 74.8925 153.101 74.8925H70.7911V100.703ZM657.431 137.023H722.071C740.611 136.763 748.761 124.942 748.761 109.122C748.761 94.4125 741.271 81.9425 722.421 81.9425H657.081C638.231 81.9425 630.741 94.4225 630.741 109.122C630.741 124.942 638.881 136.763 657.431 137.023Z" fill="#F6F6F6"/>
<path id="CoolLogo" d="M560.038 189.949L552.033 197.953L560.038 205.958L568.042 197.953L560.038 189.949Z" fill="#F6F6F6"/>
<path id="CoolLogo" d="M541.295 203.333L546.598 198.029L551.902 203.332L546.6 208.636L541.295 203.333Z" fill="#F6F6F6"/>
</svg>
